<?xml version="1.0" encoding="utf-8"?>
<!-- Generator: Adobe Illustrator 27.5.0, SVG Export Plug-In . SVG Version: 6.00 Build 0)  -->
<svg version="1.1" xmlns="http://www.w3.org/2000/svg" xmlns:xlink="http://www.w3.org/1999/xlink" x="0px" y="0px"
	 viewBox="0 0 750 500" style="enable-background:new 0 0 750 500;" xml:space="preserve">
<g id="BACKGROUND">
	<rect style="fill:#FFFFFF;" width="750" height="500"/>
</g>
<g id="OBJECTS">
	<g>
		<g>
			<g style="opacity:0.2;">
				<path style="fill:#C1DBE5;" d="M685.346,315.854c-8.603,8.344-22.342,8.134-30.686-0.469
					c-8.344-8.603-8.134-22.342,0.469-30.686c8.603-8.344,22.342-8.134,30.686,0.469
					C694.159,293.771,693.949,307.51,685.346,315.854z"/>
				<path style="fill:#F2D06C;" d="M640.804,326.162c-3.759,3.646-9.762,3.554-13.407-0.205s-3.554-9.762,0.205-13.407
					c3.759-3.646,9.762-3.554,13.407,0.205C644.655,316.513,644.563,322.516,640.804,326.162z"/>
				
					<line style="fill:none;stroke:#C1DBE5;stroke-width:1.4173;stroke-miterlimit:10;" x1="642.848" y1="314.825" x2="651.464" y2="310.691"/>
				<path style="opacity:0.54;fill:#997FFF;" d="M626.655,295.034c-2.218,2.151-5.759,2.097-7.91-0.121
					c-2.151-2.217-2.097-5.759,0.121-7.91c2.218-2.151,5.759-2.097,7.91,0.121C628.927,289.342,628.873,292.883,626.655,295.034z"/>
				
					<line style="fill:none;stroke:#C1DBE5;stroke-width:1.4173;stroke-miterlimit:10;" x1="630.25" y1="310.391" x2="624.676" y2="295.279"/>
			</g>
			<g style="opacity:0.28;">
				<path style="fill:#C1DBE5;" d="M476.121,357.554c-6.035-9.654-3.102-22.371,6.552-28.406c9.653-6.035,22.371-3.102,28.406,6.552
					c6.035,9.653,3.102,22.371-6.552,28.406C494.874,370.141,482.156,367.207,476.121,357.554z"/>
				<path style="fill:#F2D06C;" d="M413.224,333.955c-6.035-9.653-3.102-22.371,6.552-28.406c9.654-6.035,22.371-3.102,28.406,6.552
					c6.035,9.653,3.102,22.371-6.552,28.406C431.977,346.541,419.259,343.608,413.224,333.955z"/>
				<path style="opacity:0.54;fill:#997FFF;" d="M432.129,430.022c-6.035-9.653-3.102-22.371,6.552-28.406
					c9.653-6.035,22.371-3.102,28.406,6.552c6.035,9.653,3.102,22.371-6.551,28.406
					C450.882,442.609,438.164,439.675,432.129,430.022z"/>
				<path style="fill:#997FFF;" d="M465.398,309.57c-2.362-2.827-1.984-7.032,0.842-9.394c2.826-2.362,7.032-1.985,9.394,0.842
					c2.362,2.827,1.985,7.032-0.842,9.394C471.965,312.774,467.759,312.397,465.398,309.57z"/>
				<path style="fill:#F2D06C;" d="M512.403,389.297c-0.929-3.564,1.207-7.207,4.772-8.135c3.564-0.929,7.207,1.207,8.135,4.772
					c0.929,3.564-1.207,7.207-4.772,8.135C516.975,394.998,513.332,392.862,512.403,389.297z"/>
				
					<line style="fill:none;stroke:#C1DBE5;stroke-width:1.4173;stroke-miterlimit:10;" x1="472.991" y1="338.061" x2="449.983" y2="330.995"/>
				
					<line style="fill:none;stroke:#C1DBE5;stroke-width:1.4173;stroke-miterlimit:10;" x1="484.645" y1="366.349" x2="461.659" y2="402.027"/>
				
					<line style="fill:none;stroke:#C1DBE5;stroke-width:1.4173;stroke-miterlimit:10;" x1="504.745" y1="364.216" x2="515.126" y2="381.313"/>
				
					<line style="fill:none;stroke:#C1DBE5;stroke-width:1.4173;stroke-miterlimit:10;" x1="472.547" y1="310.367" x2="482.928" y2="327.464"/>
			</g>
			<g style="opacity:0.03;">
				<g>
					<g>
						<g>
							<path style="fill:#293534;" d="M695.896,410.838c-9.146-11.512-24.914-16.135-39.117-13.987
								c-15.484,2.342-28.445,14.835-44.714,12.955c-12.644-1.461-24.622-11.047-29.282-22.948
								c-5.816-14.851,0.458-30.428,2.98-45.407c1.37-8.134,1.759-16.546-0.596-24.543c-2.158-7.326-6.294-14.131-11.882-19.347
								c-1.44-1.344-2.988-2.57-4.59-3.715c-1.246-0.89-3.155-0.219-3.878,1.017c-0.833,1.424-0.232,2.986,1.017,3.878
								c5.725,4.09,10.284,10.021,12.818,16.584c2.786,7.218,3.059,14.944,1.97,22.547c-2.246,15.691-9.034,31.589-4.326,47.518
								c3.997,13.522,15.229,24.587,28.689,28.668c7.443,2.257,15.164,2.001,22.559-0.315c7.81-2.447,14.957-6.553,22.641-9.321
								c12.785-4.605,28.108-2.692,38.272,6.713c1.24,1.147,2.38,2.39,3.43,3.712c0.953,1.2,3.013,0.996,4.009,0
								C697.081,413.662,696.852,412.04,695.896,410.838L695.896,410.838z"/>
						</g>
					</g>
					<g>
						<g>
							<path style="fill:#293534;" d="M652.811,456.169c-10.956-7.455-16.174-22.14-14.268-35.029
								c1.216-8.22,4.996-15.866,7.46-23.742c2.427-7.762,3.417-15.731,1.284-23.682c-3.643-13.579-14.624-24.79-27.887-29.233
								c-15.298-5.124-30.594,1.1-45.291,5.214c-7.339,2.054-15.153,3.632-22.79,2.49c-7.213-1.078-14.148-4.259-19.575-9.145
								c-1.412-1.272-2.721-2.648-3.937-4.108c-0.98-1.177-2.996-1.013-4.009,0c-1.165,1.165-0.983,2.829,0,4.009
								c5.019,6.027,11.755,10.487,19.159,13.023c7.74,2.65,15.896,2.655,23.884,1.249c7.789-1.371,15.229-4.117,22.826-6.237
								c7.129-1.989,15.066-3.589,22.288-2.478c12.906,1.986,24.467,11.511,28.917,23.724c1.176,3.228,1.897,6.502,1.998,9.821
								c0.125,4.074-0.651,8.054-1.767,11.955c-2.29,8.009-6.061,15.608-7.705,23.801c-2.836,14.138,1.483,30.057,12.279,39.91
								c1.337,1.22,2.776,2.336,4.272,3.353c1.266,0.862,3.143,0.24,3.878-1.017C654.647,458.648,654.081,457.033,652.811,456.169
								L652.811,456.169z"/>
						</g>
					</g>
				</g>
				<g>
					<g>
						<path style="fill:#527B99;" d="M597.684,396.999c3.484-3.751,6.968-7.503,10.452-11.254c5.554-5.98,11.107-11.96,16.661-17.94
							c1.275-1.373,2.551-2.747,3.826-4.12c2.48-2.671-1.52-6.689-4.009-4.009c-3.484,3.751-6.968,7.503-10.452,11.254
							c-5.554,5.98-11.107,11.96-16.661,17.94c-1.276,1.373-2.551,2.747-3.827,4.12
							C591.195,395.661,595.195,399.679,597.684,396.999L597.684,396.999z"/>
					</g>
				</g>
				<g>
					<g>
						<path style="fill:#527B99;" d="M621.358,403.93c4.653-5.01,9.306-10.021,13.959-15.031c0.655-0.705,1.31-1.411,1.965-2.116
							c1.009-1.087,1.157-2.947,0-4.009c-1.097-1.007-2.931-1.16-4.009,0c-4.653,5.01-9.306,10.021-13.959,15.031
							c-0.655,0.705-1.31,1.411-1.965,2.116c-1.009,1.087-1.157,2.947,0,4.009C618.447,404.937,620.281,405.09,621.358,403.93
							L621.358,403.93z"/>
					</g>
				</g>
				<g>
					<g>
						<path style="fill:#527B99;" d="M589.465,374.31c4.653-5.01,9.306-10.021,13.959-15.031c0.655-0.705,1.31-1.411,1.965-2.116
							c1.009-1.087,1.157-2.947,0-4.009c-1.097-1.007-2.931-1.16-4.009,0c-4.653,5.01-9.306,10.021-13.959,15.031
							c-0.655,0.705-1.31,1.411-1.965,2.116c-1.009,1.087-1.157,2.947,0,4.009C586.553,375.317,588.387,375.471,589.465,374.31
							L589.465,374.31z"/>
					</g>
				</g>
				<g>
					<g>
						<path style="fill:#527B99;" d="M651.557,440.188c7.037-7.577,14.073-15.154,21.11-22.73c1.001-1.078,2.003-2.157,3.004-3.235
							c2.48-2.671-1.52-6.689-4.009-4.009c-7.037,7.577-14.073,15.154-21.11,22.73c-1.001,1.078-2.003,2.156-3.004,3.235
							C645.068,438.85,649.068,442.868,651.557,440.188L651.557,440.188z"/>
					</g>
				</g>
				<g>
					<g>
						<path style="fill:#527B99;" d="M548.431,344.414c7.037-7.577,14.073-15.154,21.11-22.73c1.001-1.078,2.003-2.157,3.004-3.235
							c2.48-2.671-1.519-6.689-4.009-4.009c-7.037,7.577-14.073,15.154-21.11,22.73c-1.001,1.078-2.003,2.156-3.004,3.235
							C541.942,343.076,545.942,347.094,548.431,344.414L548.431,344.414z"/>
					</g>
				</g>
				<g>
					<g>
						<g>
							<path style="fill:#E16A8C;" d="M609.474,401.105c7.037-7.577,14.073-15.154,21.11-22.731
								c1.001-1.078,2.003-2.156,3.004-3.235c2.48-2.671-1.52-6.689-4.009-4.009c-7.037,7.577-14.073,15.154-21.11,22.73
								c-1.001,1.078-2.003,2.156-3.004,3.235C602.985,399.767,606.985,403.785,609.474,401.105L609.474,401.105z"/>
						</g>
					</g>
					<g>
						<g>
							<path style="fill:#E16A8C;" d="M593.307,386.09c7.037-7.577,14.073-15.154,21.11-22.73c1.001-1.078,2.003-2.157,3.004-3.235
								c2.48-2.671-1.519-6.689-4.009-4.009c-7.037,7.577-14.073,15.154-21.11,22.73c-1.001,1.078-2.003,2.157-3.004,3.235
								C586.818,384.752,590.818,388.771,593.307,386.09L593.307,386.09z"/>
						</g>
					</g>
					<g>
						<g>
							<path style="fill:#E16A8C;" d="M655.935,451.097c3.484-3.751,6.968-7.503,10.452-11.254
								c5.553-5.98,11.107-11.96,16.661-17.94c1.276-1.373,2.551-2.747,3.826-4.12c2.48-2.671-1.519-6.689-4.009-4.009
								c-3.484,3.751-6.968,7.503-10.452,11.254c-5.554,5.98-11.107,11.96-16.661,17.94c-1.276,1.373-2.551,2.747-3.826,4.12
								C649.445,449.759,653.445,453.777,655.935,451.097L655.935,451.097z"/>
						</g>
					</g>
					<g>
						<g>
							<path style="fill:#E16A8C;" d="M647.716,428.408c4.653-5.01,9.306-10.021,13.959-15.031c0.655-0.705,1.31-1.411,1.965-2.116
								c1.009-1.087,1.157-2.947,0-4.009c-1.097-1.007-2.931-1.16-4.009,0c-4.653,5.01-9.306,10.021-13.959,15.031
								c-0.655,0.705-1.31,1.411-1.965,2.116c-1.009,1.087-1.157,2.947,0,4.009C644.804,429.415,646.638,429.569,647.716,428.408
								L647.716,428.408z"/>
						</g>
					</g>
					<g>
						<g>
							<path style="fill:#E16A8C;" d="M536.641,340.308c3.484-3.751,6.968-7.503,10.452-11.254
								c5.554-5.98,11.107-11.96,16.661-17.94c1.276-1.373,2.551-2.747,3.827-4.12c2.48-2.671-1.52-6.689-4.009-4.009
								c-3.484,3.751-6.968,7.503-10.452,11.254c-5.554,5.98-11.107,11.96-16.661,17.94c-1.276,1.373-2.551,2.747-3.826,4.12
								C530.152,338.97,534.152,342.988,536.641,340.308L536.641,340.308z"/>
						</g>
					</g>
					<g>
						<g>
							<path style="fill:#E16A8C;" d="M560.315,347.239c4.653-5.01,9.306-10.021,13.959-15.031c0.655-0.705,1.31-1.411,1.965-2.116
								c1.009-1.087,1.157-2.947,0-4.009c-1.097-1.007-2.931-1.161-4.009,0c-4.653,5.01-9.306,10.021-13.959,15.031
								c-0.655,0.705-1.31,1.411-1.965,2.116c-1.009,1.087-1.157,2.947,0,4.009C557.404,348.246,559.238,348.399,560.315,347.239
								L560.315,347.239z"/>
						</g>
					</g>
				</g>
			</g>
			<g style="opacity:0.05;">
				<g>
					<g>
						<g>
							<path style="fill:#293534;" d="M225.213,407.476c17.778-12.702,26.615-35.625,24.28-57.095
								c-1.342-12.336-6.596-23.596-10.915-35.091c-2.224-5.92-4.248-11.963-5.308-18.214c-0.433-2.552-0.669-5.444-0.623-8.311
								c0.023-1.413,0.116-2.824,0.267-4.229c0.12-1.113,0.208-1.73,0.493-3.227c0.48-2.523,1.145-5.011,1.98-7.439
								c0.38-1.103,0.792-2.196,1.24-3.273c-0.264,0.634,0.188-0.424,0.195-0.441c0.118-0.267,0.239-0.533,0.362-0.798
								c0.294-0.636,0.6-1.267,0.917-1.893c1.138-2.245,2.42-4.415,3.83-6.5c0.361-0.534,0.731-1.062,1.109-1.584
								c0.172-0.237,0.345-0.474,0.521-0.709c0.003-0.004,0.704-0.92,0.3-0.402c0.794-1.018,1.622-2.01,2.479-2.976
								c1.715-1.933,3.548-3.76,5.489-5.467c0.882-0.775,1.784-1.527,2.708-2.251c-0.517,0.405,0.397-0.3,0.4-0.302
								c0.188-0.141,0.376-0.28,0.566-0.419c0.615-0.45,1.239-0.888,1.871-1.315c2.086-1.409,4.258-2.688,6.504-3.826
								c0.521-0.264,1.047-0.52,1.576-0.768c0.317-0.149,0.636-0.295,0.956-0.438c0.017-0.008,1.072-0.467,0.44-0.199
								c1.181-0.501,2.386-0.951,3.601-1.363c2.431-0.826,4.92-1.484,7.444-1.957c0.575-0.108,1.151-0.206,1.729-0.294
								c-0.069,0.011,1.069-0.149,0.573-0.084c-0.497,0.065,0.647-0.073,0.576-0.065c1.368-0.152,2.742-0.244,4.117-0.295
								c6.192-0.23,12.074,0.338,17.924,1.426c11.771,2.19,23.099,6.181,34.757,8.847c11.977,2.739,24.451,4.051,36.565,1.391
								c11.382-2.499,22.083-8.259,30.494-16.315c1.975-1.891,3.806-3.922,5.5-6.069c1.184-1.501,1.465-3.546,0-5.011
								c-1.23-1.23-3.819-1.511-5.011,0c-3.482,4.415-7.7,8.43-12.029,11.436c-4.597,3.191-9.449,5.658-14.448,7.35
								c-5.509,1.864-10.543,2.803-16.107,2.973c-6.152,0.189-11.987-0.394-17.806-1.486c-23.19-4.348-46.024-15.525-70.092-10.36
								c-20.737,4.45-38.28,20.501-45.611,40.234c-1.823,4.906-2.916,10.057-3.329,15.272c-0.496,6.256,0.393,12.586,1.949,18.642
								c3.137,12.206,8.977,23.492,12.574,35.549c0.808,2.709,1.473,5.453,1.918,8.246c0.321,2.016,0.572,4.922,0.619,7.548
								c0.1,5.538-0.393,9.902-1.658,15.101c-1.28,5.258-2.861,9.421-5.343,13.972c-2.596,4.761-5.156,8.247-8.951,11.978
								c-0.831,0.817-1.691,1.605-2.579,2.361c-1.176,1.001-1.343,1.129-2.589,2.019c-1.555,1.111-2.3,3.089-1.271,4.848
								C221.264,407.742,223.647,408.595,225.213,407.476L225.213,407.476z"/>
						</g>
					</g>
					<g>
						<g>
							<path style="fill:#293534;" d="M160.942,339.048c0.687-0.913-0.418,0.501,0.298-0.39c0.219-0.272,0.437-0.544,0.66-0.813
								c0.372-0.448,0.752-0.889,1.14-1.322c0.855-0.956,1.748-1.877,2.675-2.763c0.888-0.848,1.808-1.664,2.755-2.446
								c0.957-0.79,1.495-1.206,2.795-2.109c2.046-1.421,4.188-2.703,6.403-3.842c1.171-0.602,2.361-1.163,3.569-1.686
								c-0.471,0.204,0.082-0.035,0.149-0.063c0.334-0.136,0.669-0.271,1.005-0.403c0.674-0.263,1.352-0.514,2.035-0.753
								c2.519-0.882,5.095-1.601,7.706-2.153c1.194-0.253,2.396-0.471,3.602-0.654c0.009-0.001,1.201-0.167,0.512-0.077
								c0.243-0.031,0.486-0.061,0.729-0.089c0.792-0.092,1.585-0.169,2.379-0.232c2.637-0.207,5.287-0.249,7.929-0.121
								c1.295,0.063,2.588,0.166,3.876,0.31c0.307,0.034,0.614,0.07,0.921,0.11c-0.677-0.088,0.529,0.079,0.529,0.079
								c0.735,0.112,1.468,0.238,2.198,0.377c11.967,2.289,22.927,8.221,34.232,12.517c5.772,2.193,11.689,4.029,17.821,4.871
								c5.872,0.807,11.695,0.608,17.515-0.512c20.851-4.01,38.639-19.767,46.38-39.335c4.21-10.641,4.647-22.224,3.168-33.468
								c-1.586-12.065-5.194-23.676-7.844-35.52c-1.353-6.05-2.336-11.607-2.693-17.664c-0.178-3.018-0.194-6.047-0.018-9.065
								c0.172-2.958,0.439-4.918,1.078-7.878c2.327-10.782,7.613-20.582,15.327-28.339c1.781-1.791,4.019-3.755,5.715-5.027
								c1.528-1.146,2.316-3.062,1.271-4.848c-0.881-1.506-3.308-2.426-4.848-1.271c-9.564,7.172-16.811,16.722-21.282,27.801
								c-4.538,11.244-5.239,23.416-3.679,35.347c1.588,12.15,5.231,23.838,7.89,35.767c1.313,5.892,2.269,11.287,2.634,17.169
								c0.195,3.14,0.21,6.291,0.017,9.431c-0.069,1.118-0.237,2.938-0.333,3.644c-0.102,0.741-0.424,2.546-0.673,3.677
								c-0.551,2.508-1.285,4.975-2.185,7.38c-0.205,0.546-0.42,1.089-0.639,1.629c-0.422,1.04,0.147-0.327-0.121,0.282
								c-0.117,0.267-0.235,0.534-0.356,0.8c-0.531,1.17-1.102,2.322-1.71,3.454c-1.218,2.269-2.586,4.457-4.085,6.552
								c-1.298,1.814-2.748,3.585-4.576,5.54c-3.63,3.884-7.067,6.745-11.297,9.443c-2.121,1.353-4.326,2.576-6.601,3.651
								c-0.581,0.275-1.167,0.539-1.756,0.795c-0.61,0.265,0.759-0.298-0.284,0.118c-0.325,0.13-0.65,0.262-0.976,0.388
								c-1.198,0.462-2.41,0.885-3.636,1.265c-2.453,0.76-4.96,1.348-7.497,1.75c0.069-0.011-1.068,0.16-0.571,0.09
								c0.497-0.07-0.644,0.079-0.574,0.071c-0.582,0.068-1.166,0.126-1.75,0.175c-1.543,0.127-3.091,0.186-4.638,0.159
								c-5.837-0.102-11.49-1.446-17.23-3.344c-11.84-3.915-22.893-10.057-34.954-13.326c-21.041-5.703-45.498-0.241-61.095,15.303
								c-1.869,1.862-3.546,3.882-5.13,5.989c-1.151,1.531-0.246,3.961,1.271,4.848C157.907,341.38,159.788,340.582,160.942,339.048
								L160.942,339.048z"/>
						</g>
					</g>
				</g>
				<g>
					<g>
						<path style="fill:#527B99;" d="M254.939,260.887c5.374,5.507,10.749,11.014,16.123,16.521
							c8.564,8.775,17.127,17.549,25.691,26.324c1.962,2.01,3.924,4.021,5.886,6.031c1.337,1.37,3.669,1.342,5.011,0
							c1.371-1.371,1.341-3.637,0-5.011c-5.374-5.507-10.749-11.014-16.123-16.52c-8.564-8.775-17.127-17.549-25.691-26.324
							c-1.962-2.01-3.924-4.021-5.886-6.031c-1.337-1.37-3.669-1.342-5.011,0C253.568,257.247,253.599,259.513,254.939,260.887
							L254.939,260.887z"/>
					</g>
				</g>
				<g>
					<g>
						<path style="fill:#527B99;" d="M242.795,295.895c7.167,7.343,14.333,14.686,21.5,22.029c1.017,1.042,2.035,2.085,3.052,3.127
							c1.337,1.37,3.669,1.342,5.011,0c1.371-1.371,1.341-3.637,0-5.011c-7.167-7.343-14.333-14.686-21.5-22.029
							c-1.017-1.042-2.035-2.085-3.052-3.127c-1.337-1.37-3.669-1.342-5.011,0C241.424,292.255,241.454,294.522,242.795,295.895
							L242.795,295.895z"/>
					</g>
				</g>
				<g>
					<g>
						<path style="fill:#527B99;" d="M289.586,250.229c7.167,7.343,14.333,14.686,21.5,22.029c1.017,1.042,2.035,2.085,3.052,3.127
							c1.337,1.37,3.669,1.342,5.011,0c1.371-1.371,1.341-3.637,0-5.011c-7.167-7.343-14.333-14.686-21.5-22.029
							c-1.017-1.042-2.035-2.085-3.052-3.127c-1.337-1.37-3.669-1.342-5.011,0C288.215,246.589,288.245,248.855,289.586,250.229
							L289.586,250.229z"/>
					</g>
				</g>
				<g>
					<g>
						<path style="fill:#527B99;" d="M186.168,338.53c4.196,4.299,8.391,8.598,12.587,12.897
							c6.658,6.822,13.315,13.643,19.973,20.465c1.54,1.577,3.079,3.155,4.619,4.732c1.337,1.37,3.669,1.342,5.011,0
							c1.371-1.371,1.341-3.637,0-5.011c-4.196-4.299-8.391-8.598-12.587-12.897c-6.658-6.822-13.315-13.643-19.973-20.465
							c-1.54-1.578-3.079-3.155-4.619-4.733c-1.337-1.37-3.669-1.341-5.011,0C184.797,334.89,184.827,337.156,186.168,338.53
							L186.168,338.53z"/>
					</g>
				</g>
				<g>
					<g>
						<path style="fill:#527B99;" d="M337.467,190.869c4.196,4.299,8.391,8.598,12.587,12.897
							c6.657,6.822,13.315,13.643,19.973,20.465c1.54,1.577,3.079,3.155,4.619,4.732c1.337,1.37,3.669,1.342,5.011,0
							c1.371-1.371,1.341-3.637,0-5.011c-4.196-4.299-8.391-8.598-12.587-12.897c-6.658-6.822-13.315-13.643-19.973-20.465
							c-1.539-1.577-3.079-3.155-4.619-4.732c-1.337-1.37-3.669-1.342-5.011,0C336.096,187.229,336.126,189.495,337.467,190.869
							L337.467,190.869z"/>
					</g>
				</g>
				<g>
					<g>
						<g>
							<path style="fill:#E16A8C;" d="M247.91,278.273c4.196,4.299,8.391,8.598,12.587,12.897
								c6.658,6.822,13.315,13.643,19.973,20.465c1.539,1.578,3.079,3.155,4.619,4.733c1.337,1.37,3.669,1.342,5.011,0
								c1.371-1.371,1.341-3.637,0-5.011c-4.196-4.299-8.391-8.598-12.587-12.897c-6.658-6.822-13.315-13.643-19.973-20.465
								c-1.54-1.577-3.079-3.155-4.619-4.732c-1.337-1.37-3.669-1.342-5.011,0C246.539,274.633,246.569,276.899,247.91,278.273
								L247.91,278.273z"/>
						</g>
					</g>
					<g>
						<g>
							<path style="fill:#E16A8C;" d="M271.629,255.124c4.196,4.299,8.391,8.598,12.587,12.897
								c6.658,6.822,13.315,13.643,19.973,20.465c1.54,1.577,3.079,3.155,4.619,4.732c1.337,1.37,3.669,1.342,5.011,0
								c1.371-1.371,1.341-3.637,0-5.011c-4.196-4.299-8.391-8.598-12.587-12.897c-6.658-6.822-13.315-13.643-19.973-20.465
								c-1.54-1.577-3.079-3.155-4.619-4.732c-1.337-1.37-3.669-1.342-5.011,0C270.258,251.484,270.288,253.751,271.629,255.124
								L271.629,255.124z"/>
						</g>
					</g>
					<g>
						<g>
							<path style="fill:#E16A8C;" d="M169.479,344.293c5.374,5.507,10.749,11.014,16.123,16.52
								c8.564,8.775,17.127,17.549,25.691,26.324c1.962,2.01,3.924,4.021,5.886,6.031c1.337,1.37,3.669,1.342,5.011,0
								c1.371-1.371,1.341-3.637,0-5.011c-5.374-5.507-10.749-11.014-16.123-16.52c-8.564-8.775-17.127-17.549-25.691-26.324
								c-1.962-2.01-3.924-4.021-5.886-6.031c-1.337-1.37-3.669-1.342-5.011,0C168.108,340.653,168.138,342.919,169.479,344.293
								L169.479,344.293z"/>
						</g>
					</g>
					<g>
						<g>
							<path style="fill:#E16A8C;" d="M204.125,333.635c7.167,7.343,14.333,14.686,21.5,22.029c1.017,1.042,2.035,2.085,3.052,3.127
								c1.337,1.37,3.669,1.342,5.011,0c1.371-1.371,1.341-3.637,0-5.011c-7.167-7.343-14.333-14.686-21.5-22.029
								c-1.017-1.042-2.035-2.085-3.052-3.127c-1.337-1.37-3.669-1.342-5.011,0C202.754,329.995,202.785,332.261,204.125,333.635
								L204.125,333.635z"/>
						</g>
					</g>
					<g>
						<g>
							<path style="fill:#E16A8C;" d="M344.497,173.483c5.374,5.507,10.749,11.014,16.123,16.52
								c8.564,8.775,17.127,17.549,25.691,26.324c1.962,2.01,3.924,4.021,5.886,6.031c1.337,1.37,3.669,1.342,5.011,0
								c1.371-1.371,1.341-3.637,0-5.011c-5.375-5.507-10.749-11.014-16.123-16.52c-8.564-8.775-17.127-17.549-25.691-26.324
								c-1.962-2.01-3.924-4.021-5.886-6.031c-1.337-1.37-3.669-1.342-5.011,0C343.126,169.843,343.156,172.109,344.497,173.483
								L344.497,173.483z"/>
						</g>
					</g>
					<g>
						<g>
							<path style="fill:#E16A8C;" d="M332.352,208.491c7.167,7.343,14.333,14.686,21.5,22.029c1.017,1.042,2.035,2.085,3.052,3.127
								c1.337,1.37,3.669,1.341,5.011,0c1.371-1.371,1.341-3.637,0-5.011c-7.167-7.343-14.333-14.686-21.5-22.029
								c-1.017-1.042-2.035-2.085-3.052-3.127c-1.337-1.37-3.669-1.342-5.011,0C330.981,204.851,331.012,207.117,332.352,208.491
								L332.352,208.491z"/>
						</g>
					</g>
				</g>
			</g>
			<g style="opacity:0.13;">
				
					<ellipse transform="matrix(0.8033 -0.5956 0.5956 0.8033 45.6105 269.2678)" style="fill:#C1DBE5;" cx="430.428" cy="65.588" rx="25.762" ry="25.762"/>
				<path style="fill:#F2D06C;" d="M395.487,96.317c-4.462,4.328-11.588,4.219-15.916-0.243s-4.219-11.588,0.243-15.916
					c4.462-4.328,11.588-4.219,15.916,0.243C400.058,84.863,399.949,91.989,395.487,96.317z"/>
				
					<line style="fill:none;stroke:#C1DBE5;stroke-width:1.4173;stroke-miterlimit:10;" x1="397.913" y1="82.859" x2="408.141" y2="77.952"/>
				<path style="opacity:0.54;fill:#997FFF;" d="M378.69,59.364c-2.633,2.553-6.836,2.489-9.39-0.144
					c-2.553-2.632-2.489-6.836,0.144-9.39c2.633-2.553,6.836-2.489,9.39,0.144C381.387,52.607,381.323,56.811,378.69,59.364z"/>
				
					<line style="fill:none;stroke:#C1DBE5;stroke-width:1.4173;stroke-miterlimit:10;" x1="382.958" y1="77.595" x2="376.341" y2="59.655"/>
			</g>
		</g>
		<g>
			<g>
				<path style="fill:#EBF0FE;" d="M635.841,74.133c-6.761-3.938-9.049-12.61-5.112-19.371c3.938-6.76,12.61-9.049,19.371-5.111
					c6.76,3.938,9.049,12.61,5.111,19.371C651.274,75.782,642.602,78.071,635.841,74.133z"/>
				<path style="fill:#F2D06C;" d="M590.039,79.922c-6.761-3.938-9.049-12.61-5.111-19.371c3.938-6.761,12.61-9.049,19.371-5.111
					c6.761,3.938,9.049,12.61,5.111,19.371C605.472,81.571,596.799,83.86,590.039,79.922z"/>
				<path style="fill:#997FFF;" d="M632.294,132.285c-6.76-3.938-9.049-12.61-5.111-19.371c3.938-6.761,12.61-9.049,19.371-5.112
					c6.76,3.938,9.049,12.61,5.112,19.371C647.728,133.934,639.055,136.222,632.294,132.285z"/>
				<path style="fill:#997FFF;" d="M613.957,48.389c-2.341-0.963-3.458-3.641-2.496-5.982c0.963-2.341,3.641-3.458,5.982-2.496
					c2.341,0.963,3.458,3.641,2.496,5.982C618.976,48.234,616.298,49.351,613.957,48.389z"/>
				<path style="fill:#F2D06C;" d="M668.068,81.818c-1.706-1.87-1.573-4.769,0.297-6.475c1.87-1.706,4.769-1.573,6.475,0.297
					c1.706,1.87,1.573,4.769-0.297,6.475C672.673,83.821,669.774,83.688,668.068,81.818z"/>
				
					<line style="fill:none;stroke:#C1DBE5;stroke-width:1.4173;stroke-miterlimit:10;" x1="627.696" y1="63.282" x2="611.443" y2="66.352"/>
				
					<line style="fill:none;stroke:#C1DBE5;stroke-width:1.4173;stroke-miterlimit:10;" x1="643.841" y1="76.751" x2="641.287" y2="105.807"/>
				
					<line style="fill:none;stroke:#C1DBE5;stroke-width:1.4173;stroke-miterlimit:10;" x1="655.38" y1="69.019" x2="667.167" y2="76.091"/>
				
					<line style="fill:none;stroke:#C1DBE5;stroke-width:1.4173;stroke-miterlimit:10;" x1="618.559" y1="46.584" x2="630.346" y2="53.657"/>
			</g>
			<g>
				<path style="fill:#C1DBE5;" d="M109.956,168.238c-16.973-7.42-24.717-27.194-17.297-44.168
					c7.42-16.973,27.194-24.718,44.168-17.298c16.973,7.42,24.717,27.194,17.298,44.168
					C146.703,167.914,126.929,175.658,109.956,168.238z"/>
				<path style="fill:#F2D06C;" d="M69.13,110.562c-7.416-3.242-10.8-11.882-7.558-19.298c3.242-7.416,11.882-10.799,19.298-7.558
					c7.416,3.242,10.8,11.882,7.558,19.298C85.186,110.42,76.546,113.804,69.13,110.562z"/>
				
					<line style="fill:none;stroke:#C1DBE5;stroke-width:1.4173;stroke-miterlimit:10;" x1="86.543" y1="106.847" x2="97.5" y2="116.75"/>
				<path style="opacity:0.54;fill:#997FFF;" d="M105.369,72.097c-4.375-1.913-6.371-7.01-4.458-11.385
					c1.913-4.375,7.01-6.371,11.385-4.459c4.375,1.912,6.371,7.01,4.459,11.385C114.841,72.013,109.744,74.009,105.369,72.097z"/>
				
					<line style="fill:none;stroke:#C1DBE5;stroke-width:1.4173;stroke-miterlimit:10;" x1="85.508" y1="86.231" x2="103.86" y2="69.409"/>
				<path style="fill:none;stroke:#997FFF;stroke-miterlimit:10;" d="M136.039,176.147c-6.76-3.938-9.049-12.61-5.111-19.371
					c3.938-6.761,12.61-9.049,19.371-5.112c6.76,3.938,9.049,12.61,5.111,19.371C151.472,177.796,142.799,180.085,136.039,176.147z"
					/>
			</g>
		</g>
	</g>
	<g>
		<g>
			<rect x="381.892" y="238.885" style="fill:#C4C5C6;" width="273.447" height="28.17"/>
			<rect x="387.254" y="247.14" style="fill:#DEDFE0;" width="102.638" height="17.257"/>
			<rect x="547.339" y="247.14" style="fill:#DEDFE0;" width="102.638" height="17.257"/>
			<g>
				<path style="fill:#C4C5C6;" d="M442.105,256.098c0,1.927-1.562,3.489-3.489,3.489c-1.927,0-3.489-1.562-3.489-3.489
					s1.562-3.489,3.489-3.489C440.542,252.608,442.105,254.171,442.105,256.098z"/>
				<path style="fill:#C4C5C6;" d="M612.998,256.098c0,1.927-1.562,3.489-3.489,3.489c-1.927,0-3.489-1.562-3.489-3.489
					s1.562-3.489,3.489-3.489C611.436,252.608,612.998,254.171,612.998,256.098z"/>
			</g>
			<polygon style="fill:#DEDFE0;" points="383.168,461.098 374.992,461.098 367.849,243.566 383.168,243.566 			"/>
			<polygon style="fill:#DEDFE0;" points="654.828,461.098 662.459,461.098 669.126,243.566 654.828,243.566 			"/>
			<path style="fill:#545AA4;" d="M695.637,245.012H329.339c-1.434,0-2.596-1.162-2.596-2.596v-8.596
				c0-1.434,1.162-2.596,2.596-2.596h366.298c1.434,0,2.596,1.162,2.596,2.596v8.596C698.232,243.85,697.07,245.012,695.637,245.012
				z"/>
		</g>
		<g>
			<path style="fill:#EBF0FE;" d="M654.349,160.575h-15.954v5.619h1.963c-0.033,0.255-0.057,0.513-0.057,0.778v47.862
				c0,3.283,2.662,5.945,5.945,5.945l0,0c3.284,0,5.945-2.662,5.945-5.945v-47.862c0-0.264-0.023-0.523-0.057-0.778h2.214V160.575z"
				/>
			<path style="fill:#F4BF3B;" d="M652.225,197.455c-2.522,0.664-5.362,0.165-7.429-1.438c-1.322-1.025-2.32-2.428-3.685-3.395
				c-0.25-0.177-0.526-0.327-0.81-0.462v22.804c0,3.283,2.669,5.945,5.962,5.945c3.293,0,5.962-2.662,5.962-5.945V197.455z"/>
			<path style="fill:#F2D06C;" d="M646.263,220.91c3.293,0,5.962-2.662,5.962-5.945v-23.739c-0.365,0.089-0.722,0.214-1.052,0.377
				c-1.427,0.704-2.527,1.907-3.696,2.984c-1.989,1.833-4.567,3.388-7.176,3.624v16.754
				C640.301,218.248,642.97,220.91,646.263,220.91z"/>
			<path style="fill:#EBF0FE;" d="M676.018,160.706h-15.954v5.619h1.963c-0.033,0.255-0.057,0.513-0.057,0.778v47.862
				c0,3.283,2.662,5.945,5.945,5.945l0,0c3.283,0,5.945-2.662,5.945-5.945v-47.862c0-0.264-0.023-0.522-0.057-0.778h2.214V160.706z"
				/>
			<path style="fill:#7663E5;" d="M673.861,197.455c-2.514,0.664-5.346,0.165-7.408-1.438c-1.318-1.025-2.314-2.428-3.675-3.395
				c-0.249-0.177-0.524-0.327-0.808-0.462v22.804c0,3.283,2.662,5.945,5.945,5.945c3.283,0,5.945-2.662,5.945-5.945V197.455z"/>
			<path style="fill:#997FFF;" d="M667.915,220.91c3.283,0,5.945-2.662,5.945-5.945v-23.739c-0.364,0.089-0.72,0.214-1.049,0.377
				c-1.422,0.704-2.52,1.907-3.685,2.984c-1.984,1.833-4.554,3.388-7.156,3.624v16.754
				C661.97,218.248,664.632,220.91,667.915,220.91z"/>
			<path style="fill:#EBF0FE;" d="M633.542,160.706h-15.954v5.619h1.963c-0.033,0.255-0.057,0.513-0.057,0.778v47.862
				c0,3.283,2.662,5.945,5.945,5.945l0,0c3.283,0,5.945-2.662,5.945-5.945v-47.862c0-0.264-0.023-0.522-0.057-0.778h2.214V160.706z"
				/>
			<path style="fill:#CE4A41;" d="M631.384,197.455c-2.514,0.664-5.346,0.165-7.408-1.438c-1.318-1.025-2.314-2.428-3.675-3.395
				c-0.249-0.177-0.524-0.327-0.808-0.462v22.804c0,3.283,2.662,5.945,5.945,5.945c3.283,0,5.945-2.662,5.945-5.945V197.455z"/>
			<path style="fill:#E66E60;" d="M625.439,220.91c3.283,0,5.945-2.662,5.945-5.945v-23.739c-0.364,0.089-0.72,0.214-1.049,0.377
				c-1.422,0.704-2.52,1.907-3.685,2.984c-1.984,1.833-4.554,3.388-7.156,3.624v16.754
				C619.494,218.248,622.156,220.91,625.439,220.91z"/>
			<g>
				<path style="fill:#4B377C;" d="M688.577,225.808h-83.491c-0.869,0-1.573,0.704-1.573,1.573v3.719
					c0,0.869,0.704,1.573,1.573,1.573h83.491c0.869,0,1.573-0.704,1.573-1.573v-3.719
					C690.15,226.512,689.446,225.808,688.577,225.808z"/>
				<path style="fill:#4B377C;" d="M612.322,229.207v-47.176c0-0.694-0.563-1.257-1.256-1.257h-0.675
					c-0.694,0-1.256,0.563-1.256,1.256v47.176c0,0.694,0.562,1.256,1.256,1.256h0.675
					C611.76,230.463,612.322,229.901,612.322,229.207z"/>
				<path style="fill:#4B377C;" d="M684.276,229.207v-47.176c0-0.694-0.563-1.256-1.256-1.256h-0.675
					c-0.694,0-1.256,0.563-1.256,1.256v47.176c0,0.694,0.562,1.256,1.256,1.256h0.675
					C683.714,230.463,684.276,229.901,684.276,229.207z"/>
				<path style="fill:#4B377C;" d="M688.601,180.775h-83.54c-0.855,0-1.549,0.693-1.549,1.549v0.832
					c0,0.855,0.693,1.549,1.549,1.549h83.54c0.855,0,1.549-0.693,1.549-1.549v-0.832
					C690.15,181.468,689.457,180.775,688.601,180.775z"/>
			</g>
		</g>
		<g>
			<g>
				<g>
					<path style="fill:#7663E5;" d="M488.444,200.373c-8.057-5.164-16.415-10.634-21.217-18.912
						c-0.623-1.073-1.196-2.306-0.913-3.514c0.587-2.502,4.187-2.795,6.48-1.632c2.293,1.162,4.229,3.197,6.773,3.561
						c2.617,0.374,5.191-1.197,6.829-3.272c1.638-2.075,2.55-4.612,3.598-7.039c3.687-8.544,13.057-22.446,20.152-28.467
						c1.321-1.121,4.074,1.284,5.787,1.021c2.812-0.431,0.556,4.338,1.793,6.9c1.237,2.562,1.295,5.519,1.214,8.363
						c-0.312,10.849-2.307,21.6-5.148,32.075c-1.376,5.074-3.118,10.36-7.048,13.852c-3.931,3.492-10.718,4.29-14.166,0.322"/>
				</g>
				<g>
					<path style="fill:#E2E2E2;" d="M428.615,157.268c1.415-0.213,1.849-1.149,3.316-1.299c16.977-1.745,26.655,9.711,26.655,25.703
						c0,5.87-3.447,12.664-7.553,16.818c-0.544,0.551-0.947,1.224-1.218,1.949l-0.327,0.872l0.036,21.612h29.845l-11.616-23.698
						h-0.286c4.684-6.299,7.462-14.099,7.462-22.551c0-20.898-10.861-36.767-31.759-36.767"/>
					<path style="fill:#4B377C;" d="M428.176,180.752l-6.61-4.909c-0.443-0.329-0.536-0.956-0.207-1.399l6.854-9.228l8.215,6.102
						l-6.854,9.228C429.246,180.989,428.619,181.081,428.176,180.752z"/>
					<path style="fill:#DEDFE0;" d="M454.089,148.218l-0.008-0.006l6.385-8.596c0.28-0.377,0.457-0.82,0.515-1.285l0.805-6.502
						c0.017-0.137,0.069-0.267,0.151-0.377l11.138-14.996c0.088-0.119,0.063-0.286-0.055-0.375l-6.406-4.758
						c-0.119-0.088-0.286-0.063-0.375,0.055l-11.102,14.947c-0.109,0.147-0.254,0.263-0.421,0.337l-5.949,2.649
						c-0.427,0.19-0.798,0.487-1.076,0.863l-6.389,8.612l-17.393,23.418c-0.254,0.341-0.38,0.76-0.359,1.185l0.134,2.616
						c0.025,0.743,0.388,1.434,0.985,1.878l9.765,7.253c0.597,0.443,1.364,0.591,2.082,0.4l2.59-0.662
						c0.407-0.104,0.765-0.345,1.016-0.682l12.29-16.547L454.089,148.218z"/>
					<path style="fill:#E2E2E2;" d="M466.002,205.778h-59.04c-0.732,0-1.325-0.593-1.325-1.325v-1.889
						c0-0.732,0.593-1.325,1.325-1.325h59.04c0.732,0,1.325,0.593,1.325,1.325v1.889
						C467.327,205.185,466.734,205.778,466.002,205.778z"/>
					<g>
						<g>
							<path style="fill:#4B377C;" d="M479.961,229.19h-74.164c-1.733,0-3.138-1.405-3.138-3.138v-2.292
								c0-1.733,1.405-3.138,3.138-3.138h74.164c1.733,0,3.138,1.405,3.138,3.138v2.292
								C483.099,227.785,481.694,229.19,479.961,229.19z"/>
							<path style="fill:#4B377C;" d="M410.988,232.203h-2.777c-1.387,0-2.511-1.124-2.511-2.511v-0.087
								c0-1.387,1.124-2.511,2.511-2.511h2.777c1.387,0,2.511,1.124,2.511,2.511v0.087
								C413.499,231.079,412.374,232.203,410.988,232.203z"/>
							<path style="fill:#4B377C;" d="M477.809,231.858h-2.777c-1.387,0-2.511-1.124-2.511-2.511v-0.087
								c0-1.387,1.124-2.511,2.511-2.511h2.777c1.387,0,2.511,1.124,2.511,2.511v0.087
								C480.32,230.734,479.196,231.858,477.809,231.858z"/>
						</g>
					</g>
					<path style="fill:#4B377C;" d="M451.105,202.151c1.068,1.068,1.068,2.799,0,3.866c-1.068,1.068-2.798,1.068-3.866,0
						c-1.068-1.068-1.068-2.799,0-3.866C448.307,201.084,450.038,201.084,451.105,202.151z"/>
					<path style="opacity:0.2;fill:#527B99;" d="M447.681,161.083l-12.986,11.029l-10.301-4.472
						c0.086,0.087,0.176,0.169,0.275,0.243l9.765,7.253c0.597,0.443,1.364,0.591,2.082,0.4l2.59-0.662
						c0.407-0.104,0.765-0.345,1.016-0.682l8.345-11.235L447.681,161.083z"/>
					<g>
						<path style="fill:#997FFF;" d="M453.892,159.077c0,3.516-2.85,6.366-6.366,6.366c-3.516,0-6.366-2.85-6.366-6.366
							c0-3.516,2.85-6.366,6.366-6.366C451.042,152.712,453.892,155.562,453.892,159.077z"/>
						<path style="fill:#E2E2E2;" d="M452.087,159.077c0,2.519-2.042,4.561-4.561,4.561c-2.519,0-4.561-2.042-4.561-4.561
							c0-2.519,2.042-4.561,4.561-4.561C450.045,154.517,452.087,156.559,452.087,159.077z"/>
					</g>
					<path style="opacity:0.2;fill:#527B99;" d="M467.466,199.225c4.684-6.299,7.462-14.099,7.462-22.551
						c0-8.205-1.407-16.525-5.845-22.725c2.161,5.99,2.847,13.465,3.39,19.699c1.315,15.127-8.178,26.219-8.178,26.219
						s9.209,21.723,9.611,23.056h5.463l-11.616-23.698H467.466z"/>
				</g>
				<path style="fill:#F7B094;" d="M480.7,182.97c-2.508-2.303-17.875-14.062-20.886-15.554c-3.257-1.613-6.846-2.784-9.578-5.183
					c-0.532-0.467,3.34-1.668,4.609-1.383c0.727,0.163,1.348-0.883,0.912-1.515c-0.326-0.472-0.795-0.866-1.24-1.177
					c-2.786-1.945-4.734-3.887-7.52-5.833c-1.177-0.821-2.97-2.069-3.917-3.18c-0.445-0.522,0.135-0.854,0.796-0.712
					c0.571,0.122,2.635,1.055,2.412,0.868c-0.497-0.42-0.107-1.464,0.914-1.205c4.321,1.095,10.466,3.699,13.073,5.597
					c6.557,4.774,15.489,17.872,24.851,22.298"/>
			</g>
			<g>
				<path style="fill:#DAE1EF;" d="M544.432,343.473c-14.053-0.346-28.106-0.692-42.159-1.038c-2.518-0.062-5.32-0.244-7.053-2.072
					c-1.411-1.489-1.719-3.679-1.944-5.718c-4.933-44.601-3.168-89.639-1.395-134.476c0.379-9.589,0.766-19.242,2.889-28.6
					c4.194-18.491,16.693-36.288,34.966-41.346"/>
			</g>
			<g>
				<path style="fill:#98A2FF;" d="M527.644,126.728c-4.852,1.845-9.931,3.403-15.188,4.658c-0.427,0.102-0.879,0.216-1.114,0.5
					c-0.164,0.199-0.201,0.456-0.235,0.706c-0.38,2.816-0.165,5.95,0.09,8.506c0.107,1.068,1.369,1.947,2.621,1.831
					c8.805-0.816,15.188-4.408,19.589-10.236c0.729-0.964,1.377-2.009,1.464-3.204c0.087-1.195-0.482-2.574-1.773-3.453
					c-1.29-0.879-3.33-1.033-4.172-0.136"/>
			</g>
			<g>
				<path style="fill:#F7B094;" d="M548.304,430.406c0.502,3.012,1.004,6.023,1.506,9.035c0.098,0.586,0.195,1.181,0.118,1.77
					c-0.304,2.301-3.021,3.55-4.07,5.639c-0.112,0.223-0.206,0.464-0.183,0.71c0.072,0.786,1.139,1.023,1.962,1.052
					c2.407,0.086,4.814,0.172,7.221,0.258c0.909,0.032,1.984-0.012,2.49-0.736c0.228-0.327,0.287-0.732,0.34-1.122
					c0.777-5.69,1.555-11.381,2.332-17.071"/>
				<g>
					<path style="fill:#F7B094;" d="M513.612,430.406c0.494,3.012,0.988,6.023,1.482,9.035c0.096,0.586,0.192,1.181,0.116,1.77
						c-0.299,2.301-2.973,3.55-4.005,5.639c-0.11,0.223-0.202,0.464-0.18,0.71c0.071,0.786,1.121,1.023,1.93,1.052
						c2.369,0.086,4.737,0.172,7.106,0.258c0.895,0.032,1.952-0.012,2.45-0.736c0.224-0.327,0.282-0.732,0.335-1.122
						c0.765-5.69,1.53-11.381,2.295-17.071"/>
				</g>
				<g>
					<g>
						<linearGradient id="SVGID_1_" gradientUnits="userSpaceOnUse" x1="487.4986" y1="451.7412" x2="526.7973" y2="451.7412">
							<stop  offset="0" style="stop-color:#635C92"/>
							<stop  offset="0.0039" style="stop-color:#625B91"/>
							<stop  offset="0.0915" style="stop-color:#4D4583"/>
							<stop  offset="0.1942" style="stop-color:#3D3478"/>
							<stop  offset="0.3222" style="stop-color:#322970"/>
							<stop  offset="0.5016" style="stop-color:#2C226B"/>
							<stop  offset="1" style="stop-color:#2A206A"/>
						</linearGradient>
						<path style="fill:url(#SVGID_1_);" d="M489.443,457.947c5.895,0.218,10.725,0.39,16.619,0.608
							c1.803,0.067,3.7,0.114,5.3-0.698c0.883-0.448,1.763-1.167,2.738-0.975c0.755,0.148,1.284,0.808,1.977,1.136
							c0.607,0.288,1.307,0.308,1.982,0.322c2.061,0.043,4.121,0.085,6.182,0.128c0.68,0.014,1.429,0.005,1.943-0.43
							c0.603-0.511,0.64-1.398,0.604-2.176c-0.144-3.078-0.717-6.137-1.698-9.066c-0.223-0.667-0.553-1.411-1.241-1.619
							c-0.632-0.192-1.288,0.156-1.865,0.471c-2.335,1.278-5.401,2.181-7.557,0.633c-0.56-0.402-1.023-0.953-1.666-1.212
							c-0.711-0.286-1.518-0.166-2.274-0.031c-6.529,1.17-12.898,3.187-18.886,5.979c-1.359,0.634-2.762,1.363-3.569,2.602
							c-0.807,1.239-0.747,3.134,0.514,3.937"/>
					</g>
				</g>
				<g>
					
						<linearGradient id="SVGID_00000075144132764119538090000015243445907981075856_" gradientUnits="userSpaceOnUse" x1="500.4505" y1="339.8745" x2="565.5871" y2="339.8745">
						<stop  offset="0" style="stop-color:#635C92"/>
						<stop  offset="0.0039" style="stop-color:#625B91"/>
						<stop  offset="0.0915" style="stop-color:#4D4583"/>
						<stop  offset="0.1942" style="stop-color:#3D3478"/>
						<stop  offset="0.3222" style="stop-color:#322970"/>
						<stop  offset="0.5016" style="stop-color:#2C226B"/>
						<stop  offset="1" style="stop-color:#2A206A"/>
					</linearGradient>
					<path style="fill:url(#SVGID_00000075144132764119538090000015243445907981075856_);" d="M503.679,250.026
						c-8.402,41.895,1.472,119.578,8.291,179.201c4.959,0.056,8.19,0.579,13.15,0.635c0.501-50.737,1.025-101.762,8.899-151.678
						c3.086,49.077,6.735,98.144,12.922,146.828c0.141,1.113,0.305,2.283,0.914,3.161c0.871,1.256,2.396,1.566,3.785,1.675
						c4.035,0.315,5.037,0.482,8.847-1.088c0.271-52.846,4.363-98.568,4.81-151.413c0.086-10.147,0.78-19.007-0.34-27.652"/>
				</g>
				<g>
					<g>
						<path style="fill:#7663E5;" d="M545.662,427.748c0.244,1.254,0.291,1.059,0.535,2.314c0.07,0.359,0.149,0.738,0.369,1.001
							c0.304,0.362,0.783,0.399,1.215,0.413c4.13,0.137,8.259,0.274,12.388,0.412c0.246,0.008,0.504,0.013,0.72-0.125
							c0.33-0.211,0.459-0.681,0.558-1.107l0.566-2.419c0.26-1.111-0.462-2.206-1.442-2.19c-2.71,0.046-4.871-0.031-7.969-0.16
							c-1.791-0.075-3.833-0.276-5.46-0.272c-0.109,0-0.213,0.006-0.312,0.019c-0.685,0.086-1.195,0.791-1.235,1.6L545.662,427.748z
							"/>
					</g>
				</g>
				<g>
					<g>
						<path style="fill:#7663E5;" d="M510.446,426.948c-0.186,0.256-0.265,0.598-0.217,0.93c0.158,1.097,0.25,1.897,0.432,3.101
							c0.043,0.282,0.095,0.586,0.276,0.778c0.184,0.195,0.451,0.223,0.698,0.241c4.451,0.325,8.911,0.493,13.371,0.503
							c0.274,0.001,0.566-0.006,0.791-0.189c0.243-0.197,0.348-0.552,0.432-0.884c0.219-0.875,0.385-1.77,0.497-2.673
							c0.123-0.995-0.564-1.88-1.419-1.852c-5.028,0.171-9.105,0.027-14.065-0.346C510.94,426.534,510.642,426.679,510.446,426.948
							L510.446,426.948z"/>
					</g>
				</g>
				<g>
					<g>
						
							<linearGradient id="SVGID_00000104685347341790783170000004503291467749641640_" gradientUnits="userSpaceOnUse" x1="522.2068" y1="451.9194" x2="561.5057" y2="451.9194">
							<stop  offset="0" style="stop-color:#635C92"/>
							<stop  offset="0.0039" style="stop-color:#625B91"/>
							<stop  offset="0.0915" style="stop-color:#4D4583"/>
							<stop  offset="0.1942" style="stop-color:#3D3478"/>
							<stop  offset="0.3222" style="stop-color:#322970"/>
							<stop  offset="0.5016" style="stop-color:#2C226B"/>
							<stop  offset="1" style="stop-color:#2A206A"/>
						</linearGradient>
						<path style="fill:url(#SVGID_00000104685347341790783170000004503291467749641640_);" d="M524.151,458.125
							c5.894,0.218,10.724,0.39,16.619,0.608c1.803,0.067,3.7,0.114,5.3-0.698c0.882-0.447,1.762-1.167,2.738-0.975
							c0.755,0.148,1.284,0.808,1.977,1.137c0.607,0.288,1.307,0.308,1.983,0.322c2.061,0.043,4.121,0.085,6.182,0.128
							c0.68,0.014,1.429,0.005,1.943-0.43c0.603-0.511,0.64-1.398,0.604-2.176c-0.144-3.078-0.717-6.137-1.698-9.066
							c-0.223-0.667-0.553-1.411-1.241-1.62c-0.632-0.192-1.288,0.156-1.865,0.471c-2.335,1.278-5.401,2.181-7.557,0.633
							c-0.56-0.402-1.023-0.953-1.666-1.212c-0.711-0.286-1.518-0.166-2.274-0.031c-6.529,1.17-12.898,3.187-18.885,5.979
							c-1.359,0.634-2.762,1.363-3.569,2.602c-0.807,1.239-0.747,3.134,0.514,3.937"/>
					</g>
				</g>
			</g>
			<g>
				<g>
					<path style="fill:#38303B;" d="M565.787,184.23c7.797,2.763,17.133,0.297,22.605-5.969c5.472-6.266,6.745-15.95,3.082-23.447
						c-5.371-10.994-19.219-15.814-24.259-26.968c-3.675-8.134-2.012-18.408-7.323-25.555c-2.897-3.898-7.405-6.164-11.075-9.325
						c-4.671-4.022-7.921-9.438-11.927-14.138c-4.006-4.7-9.311-8.911-15.44-9.086c-7.824-0.223-14.625,6.589-16.524,14.277
						c-1.899,7.689,0.187,15.861,3.515,23.035c3.327,7.174,7.867,13.711,11.295,20.836c7.209,14.986,10.698,33.944,25.243,41.751"/>
				</g>
				<g>
					<path style="fill:#38303B;" d="M518.734,119.918c7.841,0.147,2.072-1.48,7.389-0.304c12.033,2.662,19.6-11.838,18.717-23.488
						c-0.577-7.611-4.104-13.649-6.906-17.301c-2.802-3.653-8.034-6.885-14.631-7.947c-4.463-0.718-8.759-0.959-12.956,0.285
						c-3.795,1.125-5.61,2.118-7.699,3.306c-3.677,2.089-6.852,7.785-7.575,9.324c-2.542,5.412,1.574,5.06,2.991,10.695
						c0.794,3.158,3.818,5.774,4.171,9.259c1.288,12.729,1.049,17.468,11.301,16.001"/>
				</g>
				<g>
					<g>
						<path style="fill:#F7B094;" d="M530.455,139.007c1.306-1.333,2.163-3.132,1.711-5.134c-1.134-5.033-2.781-12.443-3.562-15.842
							c-0.321-1.397-0.642-2.795-1.017-4.181c-0.085-0.313-0.188-0.651-0.423-0.853c-0.197-0.169-0.447-0.205-0.682-0.217
							c-2.316-0.114-4.203,1.566-6.288,2.475c-2.549,1.112-5.475,1.08-8.066,2.088c-0.311,0.121-0.648,0.292-0.749,0.65
							c-0.059,0.207-0.027,0.442,0.006,0.668c0.594,4.08,2.063,12.722,2.857,17.847c0.179,1.154,0.055,2.789,0.937,3.524
							l1.579,1.569c2.507,2.09,7.406,2.13,9.826,0.311C526.587,141.913,529.05,140.44,530.455,139.007z"/>
						<g>
							<path style="fill:#E89C82;" d="M526.74,111.295c-0.197-0.168-0.447-0.205-0.682-0.217c-2.316-0.114-4.203,1.566-6.288,2.475
								c-2.549,1.112-5.476,1.08-8.066,2.088c-0.311,0.121-0.647,0.292-0.749,0.65c-0.059,0.208-0.026,0.443,0.006,0.668
								c0.332,2.281,0.664,4.561,0.996,6.842c2.671,1.105,5.459,1.62,8.137,1.227c3.676-0.538,7.045-3.014,8.542-6.71
								c-0.152-0.664-0.305-1.327-0.457-1.99c-0.321-1.397-0.642-2.795-1.017-4.181C527.078,111.834,526.975,111.496,526.74,111.295
								z"/>
						</g>
					</g>
					<g>
						<path style="fill:#F7B094;" d="M531.348,103.173c2.581-1.539,4.388-4.113,3.885-6.319c-0.504-2.205-3.742-3.601-6.612-2.514"
							/>
					</g>
					<g>
						<path style="fill:#F7B094;" d="M531.531,107.18c-1.88,11.267-9.669,13.214-17.696,16.4c-1.418,0.563-3.853,0.924-5.434,0.86
							c-3.88-0.157-6.021-3.637-7.121-6.635c-1.914-5.218-3.182-10.588-3.779-16.006c-0.411-3.729-0.488-7.57,0.995-11.117
							c1.483-3.546,4.778-6.78,9.249-7.816c5.567-1.289,11.533,1.062,15.72,4.287c6.18,4.76,9.864,11.885,8.294,18.645"/>
					</g>
					<g>
						<path style="fill:#F7B094;" d="M497.491,101.622c0.389,3.434,0.184,2.875,0.068,4.858c-0.012,0.215-0.255,1.919-1.346,2.786
							c-0.86,0.683-0.93,2.102-0.024,2.817c0.504,0.398,0.974,0.558,1.623,0.625c0.917,0.095,1.771-0.202,2.201-0.968"/>
					</g>
				</g>
				<g>
					<path style="fill:#38303B;" d="M507.085,93.855c0.14,0.058,0.043,0.235-0.123,0.29c-0.166,0.056-0.348,0.032-0.516,0.01
						c-2.039-0.259-4.386,0.184-6.166,1.164c-0.273,0.15-0.547,0.318-0.873,0.386c-0.325,0.069-0.718-0.008-0.775-0.22
						c-0.025-0.091,0.016-0.191,0.069-0.285c0.228-0.394,0.692-0.724,1.191-0.996c1.611-0.876,3.736-1.255,5.556-0.99
						c0.681,0.099,1.346,0.299,1.711,0.684"/>
				</g>
				<g style="opacity:0.21;">
					<path style="fill:#E66E60;" d="M519.266,107.383c0.335,2.491-1.628,4.75-4.386,5.046c-2.758,0.296-5.265-1.483-5.6-3.974
						c-0.335-2.491,1.628-4.75,4.386-5.046C516.423,103.113,518.931,104.892,519.266,107.383z"/>
				</g>
				<path style="fill:#38303B;" d="M505.588,100.176c0.465,1.251,0.225,2.48-0.536,2.746c-0.76,0.266-1.754-0.532-2.218-1.783
					c-0.465-1.251-0.224-2.48,0.536-2.746C504.13,98.128,505.124,98.925,505.588,100.176z"/>
				<g>
					<g>
						<path style="fill:#38303B;" d="M501.14,99.553c0.653-0.61,1.63-0.897,2.488-1.053c0.859-0.156,1.979-0.232,2.779,0.196
							c0.402,0.215,0.76-0.397,0.358-0.612c-0.956-0.511-2.188-0.459-3.224-0.285c-1.018,0.17-2.133,0.535-2.901,1.253
							C500.305,99.364,500.807,99.864,501.14,99.553L501.14,99.553z"/>
					</g>
				</g>
				<path style="fill:none;stroke:#38303B;stroke-miterlimit:10;" d="M509.792,100.088c0.448,3.092-1.626,5.951-4.632,6.387
					c-3.007,0.436-5.807-1.717-6.256-4.808c-0.448-3.092,1.626-5.951,4.632-6.387C506.543,94.844,509.344,96.997,509.792,100.088z"
					/>
				<g>
					<g>
						<path style="fill:#38303B;" d="M497.594,102.365c0.003-0.001,0.006-0.003,0.009-0.004c-0.039,0.017-0.079,0.033-0.118,0.05
							c0.214-0.088,0.448-0.135,0.673-0.183c0.256-0.055,0.514-0.104,0.774-0.139c-0.044,0.006-0.088,0.012-0.132,0.018
							c0.061-0.008,0.122-0.016,0.183-0.018c0.259-0.011,0.509-0.22,0.496-0.496c-0.012-0.259-0.218-0.508-0.496-0.496
							c-0.313,0.013-0.631,0.082-0.937,0.144c-0.325,0.065-0.647,0.137-0.952,0.269c-0.106,0.046-0.199,0.191-0.228,0.297
							c-0.033,0.119-0.018,0.277,0.05,0.382c0.068,0.106,0.17,0.199,0.297,0.228C497.35,102.447,497.464,102.421,497.594,102.365
							L497.594,102.365z"/>
					</g>
				</g>
				<g>
					<g>
						<path style="fill:#38303B;" d="M529.744,92.742c-5.608,1.614-11.18,3.359-16.761,5.062c-1.021,0.311-2.041,0.624-3.063,0.932
							c-0.61,0.184-0.35,1.142,0.264,0.957c5.361-1.62,10.711-3.274,16.075-4.884c1.248-0.375,2.497-0.75,3.75-1.11
							C530.62,93.522,530.36,92.564,529.744,92.742L529.744,92.742z"/>
					</g>
				</g>
				<g>
					<path style="fill:#38303B;" d="M527.116,91.231c-1.284-0.261-7.447-0.812-8.801-0.95c-0.37-0.038-3.45-6.336-3.824-6.364
						c-0.377-0.029,1.952,6.212,1.571,6.192c-5.682-0.296-11.658,0.411-16.767,1.948c-0.567,0.171-0.684-2.69-0.675-4.944
						c0.002-0.593-0.756,3.024-1.017,5.136c-0.131,1.055-1.734,1.28-2.519,1.632c-0.294,0.132-0.639,0.263-0.92,0.07
						c-0.284-0.196-0.363-0.628-0.397-1.005c-0.621-6.767,2.459-13.289,7.388-16.599c1.469-0.986,3.782-1.515,5.477-1.828
						c3.099-0.572,6.382,0.508,9.12,2.506c2.737,1.998,0.069,0.184,1.91,3.286"/>
				</g>
				<path style="fill:#F4F4F4;" d="M533.558,102.146c0.079,0.548-0.3,1.056-0.847,1.135c-0.547,0.079-1.056-0.3-1.135-0.848
					c-0.079-0.547,0.3-1.056,0.847-1.135C532.971,101.219,533.479,101.598,533.558,102.146z"/>
				<g>
					<defs>
						<path id="SVGID_00000089535424213598064270000009004431304358325178_" d="M501.92,119.463
							c-0.389-0.971-0.777-1.941-1.166-2.912c-0.04-0.101-0.082-0.205-0.081-0.314c0.002-0.224,0.174-0.404,0.339-0.554
							c1.415-1.285,3.11-2.21,4.812-3.069c0.617-0.311,1.24-0.617,1.902-0.813c0.517-0.153,1.075-0.236,1.591-0.081
							c0.121,0.036,0.249,0.096,0.302,0.212c0.049,0.108,0.018,0.234-0.015,0.348c-0.564,1.959-1.512,3.806-2.773,5.401
							c-0.458,0.58-0.963,1.132-1.566,1.558c-0.603,0.426-1.312,0.721-2.047,0.746c-0.282,0.01-0.579-0.025-0.813-0.186
							c-0.105-0.072-0.205-0.172-0.332-0.174"/>
					</defs>
					<clipPath id="SVGID_00000015323325184722743930000011804605752741824398_">
						<use xlink:href="#SVGID_00000089535424213598064270000009004431304358325178_"  style="overflow:visible;"/>
					</clipPath>
					<g style="clip-path:url(#SVGID_00000015323325184722743930000011804605752741824398_);">
						<g>
							<path style="fill:#E66E60;" d="M505.646,115.081c-1.521,3.375-3.674,4.84-6.949,4.892c-1.021,0.017-3.789-1.171-4.503-2.098
								c4.208,0.698,8.184-0.19,11.462-2.979"/>
						</g>
						<g>
							<path style="fill:#FFFFFF;" d="M505.646,115.081c-2.131,2.006-5.011,3.202-9.207,3.382c-0.95,0.041-1.945-0.101-2.553-0.606
								c4.037,0.023,8.57-1.114,12.035-3.165L505.646,115.081z"/>
						</g>
					</g>
				</g>
			</g>
			<g>
				<g>
					<path style="fill:#B4C8F3;" d="M502.925,252.773c-0.401-19.79-0.802-39.579-1.202-59.369
						c-0.208-10.274-0.407-20.652,1.694-30.711c2.102-10.059,6.738-19.917,14.688-26.428c3.722-3.048,8.195-5.324,12.979-5.832
						c10.324-1.097,20.052,6.367,24.783,15.608c4.731,9.241,5.495,19.944,5.954,30.316c1.109,25.102,0.948,50.261-0.483,75.347"/>
				</g>
				<g style="opacity:0.5;">
					<path style="fill:#98A2FF;" d="M541.664,193.394c-2.09-12.963-4.184-25.942-7.318-38.693l-19.392-15.492
						c-0.242,0.254-0.481,0.511-0.716,0.772c1.658,3.729,2.798,7.689,3.356,11.732c0.593,4.298,0.539,8.655,0.57,12.994
						c0.189,26.992,3.664,53.84,7.133,80.609c0.304,2.346,0.615,4.692,0.978,7.03l24.821-0.455
						C547.952,232.392,544.808,212.893,541.664,193.394z"/>
				</g>
			</g>
			<g>
				<path style="fill:#EBF0FE;" d="M520.53,141.438c2.576,68.054,23.976,131.646,32.828,199.198c0.192,1.463,0.42,3.011,1.382,4.15
					c1.414,1.673,3.908,1.924,6.132,1.997c9.951,0.329,19.936-0.34,29.747-1.99c3.537-0.595,5.972-3.797,5.459-7.256
					c-9.168-61.822-19.889-115.758-31.123-181.46c-1.276-7.461-6.457-16.762-12.255-21.787c-5.799-5.025-18.203-6.289-21.696,0.462"
					/>
			</g>
			<g>
				<path style="fill:#997FFF;" d="M522.482,187.736c3.118-10.572,5.397-17.334,8.986-27.644
					c1.879-5.397,5.872-14.114,10.315-18.137c4.443-4.023,9.595-5.902,15.175-3.57c5.523,2.308,6.057,7.228,5.661,12.786
					c-0.396,5.558-3.47,12.98-6.189,18.028c-4.931,9.152-9.041,17.264-14.892,25.843c-3.998,5.863-7.526,11.6-15.129,13.12
					c-4.581,0.916-8.119-0.758-12.354-2.438c-9.735-3.862-19.098-8.63-27.911-13.971c-2.403-1.456-4.894-4.297-5.719-6.819
					c-1.012-3.094,0.021-4.126,1.794-6.991c0.978-1.581,2.177-3.32,4.114-3.737c1.352-0.291,2.731,0.15,4.015,0.585
					c10.369,3.511,21.554,9.678,31.923,13.189"/>
			</g>
			<g>
				<path style="fill:#B4C8F3;" d="M531.375,127.009c-4.767,2.277-9.795,4.289-15.036,6.016c-0.425,0.14-0.875,0.294-1.087,0.599
					c-0.147,0.213-0.159,0.473-0.168,0.725c-0.102,2.841,0.436,5.945,0.955,8.469c0.217,1.054,1.595,1.817,2.862,1.588
					c8.907-1.609,15.472-5.076,19.374-11.282c0.646-1.027,0.791-2.817,0.759-4.015c-0.032-1.199-0.754-2.522-2.16-3.282
					c-1.407-0.76-3.505-0.729-4.274,0.242"/>
			</g>
		</g>
	</g>
	<g>
		<g>
			<path style="fill:#0D8C8A;" d="M113.556,397.247c-1.411-27.602-25.486-47.785-39.202-71.78
				c-2.993-5.237-5.562-11.551-3.312-17.148c2.25-5.597,11.637-7.616,14.043-2.085c1.588-15.434-14.731-26.211-21.135-40.343
				c-2.308-5.092-3.176-11.451,0.062-16.009c3.237-4.558,11.617-4.979,13.768,0.181c3.24-15.292-11.146-29.404-10.6-45.025
				c0.096-2.728,0.757-5.623,2.751-7.488c2.913-2.723,7.797-2.238,11.037,0.085c3.24,2.323,5.177,6.021,6.797,9.665
				c5.259,11.833,8.399,24.604,9.227,37.526c0.287,4.481,2.732,10.77,6.916,9.141c2.86-1.113,3.379-5.475,6.278-6.479
				c2.974-1.029,5.617,2.232,6.773,5.158c8.841,22.374-5.719,47.064-4.966,71.11c3.373,2.432,6.225-4.25,10.215-5.419
				c5.399-1.582,7.504,6.888,6.295,12.383c-5.24,23.821-17.386,47.907-10.836,71.402"/>
		</g>
		<g>
			
				<linearGradient id="SVGID_00000116223499355311869080000011744703231482664075_" gradientUnits="userSpaceOnUse" x1="88.8201" y1="320.5811" x2="151.0909" y2="320.5811">
				<stop  offset="0" style="stop-color:#17BAB2"/>
				<stop  offset="1" style="stop-color:#0D8C8A"/>
			</linearGradient>
			<path style="fill:url(#SVGID_00000116223499355311869080000011744703231482664075_);" d="M110.254,398.288
				c6.447-31.465-24.678-60.626-21.155-92.551c0.317-2.876,1.259-6.156,3.937-7.253c6.399-2.62,9.58,9.566,16.414,10.623
				c-1.618-11.573-4.29-22.998-7.971-34.088c-0.828-2.495-1.71-5.207-0.843-7.688c1.546-4.426,7.977-5.25,11.908-2.695
				c3.931,2.555,5.929,7.154,7.714,11.489c1.939-10.363,5.055-20.506,9.269-30.17c1.606-3.684,4.211-7.855,8.23-7.806
				c5.597,0.068,7.275,7.664,6.768,13.238c-1.31,14.396-5.534,28.52-12.341,41.271c2.786-2.437,5.728-4.956,9.333-5.797
				c3.605-0.841,8.04,0.631,9.247,4.131c0.982,2.848-0.404,5.926-1.865,8.56c-7.854,14.162-18.93,26.525-32.146,35.883
				c3.544-1.733,7.288-3.509,11.227-3.286c3.938,0.223,8.017,3.232,7.936,7.176c-0.048,2.322-1.461,4.372-2.883,6.208
				c-4.742,6.125-10.223,11.678-16.286,16.5c2.387-0.713,4.774-1.427,7.16-2.14c2.529,15.38-18.629,28.214-14.076,43.121"/>
		</g>
		<polygon style="fill:#DAE1EF;" points="161.551,363.873 67.998,363.873 67.998,372.566 74.141,372.566 85.953,457.012 
			144.838,457.012 156.651,372.566 161.551,372.566 		"/>
		<polygon style="opacity:0.11;fill:#545AA4;" points="144.838,457.012 156.651,372.566 130.091,372.566 149.133,377.12 
			144.257,457.012 		"/>
	</g>
	<g>
		<g>
			<g>
				<path style="fill:#F7B094;" d="M318.896,155.704c2.335-3.324,5.001-6.883,9.877-8.511c3.458-1.155,7.479-1.137,11.26-1.653
					s7.82-1.91,8.783-4.438c0.183-0.48,0.231-1.02-0.143-1.446c-0.809-0.92-2.81-0.726-4.361-0.515
					c-7.241,0.984-14.688-0.361-22.073-0.426c-1.92-0.017-4.37,0.347-4.687,1.629c-0.133,0.538,0.188,1.074,0.319,1.613
					c0.229,0.945-0.131,1.905-0.489,2.832c-1.474,3.819-2.948,7.639-4.422,11.458"/>
			</g>
			<g>
				<path style="fill:#EBF0FE;" d="M350.209,137.41h-32.326V88.92c0-8.927,7.236-16.163,16.163-16.163l0,0
					c8.927,0,16.163,7.236,16.163,16.163V137.41z"/>
				<g>
					
						<linearGradient id="SVGID_00000039129374206542638010000015385547789345549499_" gradientUnits="userSpaceOnUse" x1="317.857" y1="134.8481" x2="350.2071" y2="134.8481">
						<stop  offset="0" style="stop-color:#17BAB2"/>
						<stop  offset="1" style="stop-color:#0D8C8A"/>
					</linearGradient>
					<path style="fill:url(#SVGID_00000039129374206542638010000015385547789345549499_);" d="M317.857,137.561
						c4.627-3.436,10.356-5.364,16.119-5.425c5.763-0.061,11.532,1.745,16.231,5.082"/>
				</g>
				<g>
					<g>
						<path style="fill:#0D8C8A;" d="M334.425,132.313c3.525-5.441,4.441-12.476,2.462-18.651c-1.096-3.421-3.242-6.374-4.26-9.831
							c-1.039-3.528-1.134-7.316,0.667-10.615c0.383-0.702-0.69-1.33-1.073-0.627c-1.603,2.937-1.889,6.242-1.29,9.501
							c0.651,3.54,2.425,6.494,3.906,9.715c2.913,6.336,2.297,14.043-1.485,19.88C332.916,132.359,333.991,132.982,334.425,132.313
							L334.425,132.313z"/>
					</g>
				</g>
				<g>
					<path style="fill:#0D8C8A;" d="M331.643,97.156c-0.939-1.769-2.527-3.184-4.393-3.912c-1.184-0.462-2.596-0.629-3.676,0.043
						c-1.079,0.671-1.484,2.411-0.514,3.232c0.579,0.491,1.426,0.514,2.169,0.357c0.743-0.156,1.453-0.465,2.206-0.556
						c1.367-0.165,2.801,0.463,3.609,1.578"/>
				</g>
				<g>
					<path style="fill:#0D8C8A;" d="M332.495,105.166c0.911-2.272,3.183-3.934,5.624-4.114c1.087-0.081,2.281,0.162,2.992,0.989
						c0.711,0.826,0.64,2.326-0.331,2.822c-0.831,0.425-1.813-0.016-2.698-0.313c-0.953-0.32-1.963-0.469-2.968-0.437
						c-0.951,0.03-2.046,0.337-2.401,1.22"/>
				</g>
				<g>
					<path style="fill:#0D8C8A;" d="M336.088,113.829c-0.867-1.077-2.174-1.74-3.526-2.031c-1.09-0.234-2.272-0.234-3.268,0.267
						c-0.996,0.5-1.746,1.582-1.619,2.69c0.127,1.107,1.313,2.044,2.376,1.71c0.371-0.117,0.687-0.359,0.999-0.591
						c0.813-0.603,1.676-1.169,2.645-1.462c0.969-0.293,2.067-0.287,2.947,0.213"/>
				</g>
				<g>
					<path style="fill:#0D8C8A;" d="M337.132,120.341c0.453-1.412,1.487-2.697,2.902-3.24c1.415-0.543,3.195-0.212,4.114,0.95
						c0.233,0.295,0.413,0.669,0.326,1.034c-0.102,0.427-0.54,0.705-0.973,0.826c-0.721,0.201-1.487,0.094-2.224-0.021
						c-0.737-0.114-1.499-0.234-2.225-0.054c-0.727,0.179-1.414,0.743-1.474,1.469"/>
				</g>
				<g>
					<path style="fill:#0D8C8A;" d="M332.115,93.652c0.621-1.645,1.389-3.222,2.292-4.7c0.557-0.913,1.212-1.828,2.156-2.235
						c0.944-0.407,2.239-0.098,2.678,0.92c0.474,1.099-0.272,2.373-1.227,2.951c-0.955,0.578-2.093,0.722-3.098,1.196
						c-1.207,0.569-2.198,1.626-2.741,2.922"/>
				</g>
				<path style="fill:#545AA4;" d="M353.742,141.157h-39.705c-1.067,0-1.932-0.865-1.932-1.932l0,0c0-1.067,0.865-1.933,1.932-1.933
					h39.705c1.067,0,1.932,0.865,1.932,1.933l0,0C355.675,140.292,354.809,141.157,353.742,141.157z"/>
				<path style="opacity:0.31;fill:#FFFFFF;" d="M350.091,86.997c-0.695-5.86-4.521-10.76-9.762-12.973l-22.317,12.885
					c-0.082,0.659-0.129,1.33-0.129,2.011v16.672L350.091,86.997z"/>
				<polygon style="opacity:0.31;fill:#FFFFFF;" points="317.883,127.603 350.209,108.939 350.209,99.555 317.883,118.218 				"/>
			</g>
			<g>
				<path style="fill:#7663E5;" d="M286.078,172.951c-7.375-7.712-12.363-12.521-20.076-19.802
					c-4.038-3.812-11.469-9.551-17.365-11.066c-5.897-1.515-11.57-0.882-15.891,3.55c-4.277,4.387-2.728,8.841-0.03,13.437
					c2.698,4.596,8.715,9.625,13.404,12.77c8.502,5.704,15.791,10.872,24.927,15.684c6.243,3.288,11.987,6.673,19.837,4.664
					c4.73-1.21,7.387-4.188,10.704-7.475c7.624-7.556,14.516-15.726,20.647-24.148c1.672-2.297,2.848-5.819,2.577-8.343
					c-0.332-3.096-1.744-3.53-4.623-5.216c-1.589-0.93-3.452-1.9-5.465-1.414c-1.405,0.339-2.529,1.319-3.565,2.251
					c-8.372,7.53-16.409,17.696-24.781,25.226"/>
			</g>
		</g>
		<g>
			<g>
				<path style="fill:#DAE1EF;" d="M227.436,325.489c15.625,2.457,38.088,0.151,51.982-1.983c2.49-0.382,5.246-0.913,6.742-2.847
					c1.218-1.574,1.257-3.662,1.233-5.598c-0.527-42.347-7.751-84.241-14.957-125.946c-1.541-8.919-3.098-17.897-6.34-26.376
					c-6.406-16.752-20.964-31.787-39.699-34.163"/>
			</g>
			<g>
				<path style="fill:#98A2FF;" d="M224.179,123.839c6.141,1.486,12.512,2.591,19.053,3.305c0.531,0.058,1.094,0.126,1.422,0.434
					c0.228,0.215,0.313,0.52,0.391,0.816c0.889,3.343,1.108,7.16,1.192,10.285c0.035,1.305-1.355,2.561-2.885,2.612
					c-10.757,0.36-19.014-3.002-25.22-9.367c-1.027-1.053-1.969-2.216-2.257-3.645c-0.288-1.429,0.189-3.182,1.613-4.441
					c1.424-1.259,3.864-1.757,5.017-0.802"/>
			</g>
		</g>
		<g>
			<g>
				<path style="fill:#F7B094;" d="M207.974,429.983c-0.938,2.627-1.876,5.254-2.813,7.882c-0.182,0.511-0.367,1.03-0.4,1.572
					c-0.129,2.117,1.979,3.676,2.522,5.723c0.058,0.218,0.097,0.451,0.036,0.668c-0.195,0.695-1.145,0.737-1.853,0.631
					c-2.07-0.309-4.14-0.618-6.21-0.927c-0.782-0.117-1.692-0.329-2.001-1.062c-0.139-0.33-0.121-0.704-0.101-1.063
					c0.298-5.241,0.596-10.482,0.894-15.723"/>
			</g>
			<g>
				<g>
					
						<linearGradient id="SVGID_00000021817682977501197210000006670823954714714756_" gradientUnits="userSpaceOnUse" x1="189.774" y1="448.4945" x2="224.1408" y2="448.4945" gradientTransform="matrix(1.1125 0.0212 0.0212 1.004 -29.3506 -5.0129)">
						<stop  offset="0" style="stop-color:#635C92"/>
						<stop  offset="0.0039" style="stop-color:#625B91"/>
						<stop  offset="0.0915" style="stop-color:#4D4583"/>
						<stop  offset="0.1942" style="stop-color:#3D3478"/>
						<stop  offset="0.3222" style="stop-color:#322970"/>
						<stop  offset="0.5016" style="stop-color:#2C226B"/>
						<stop  offset="1" style="stop-color:#2A206A"/>
					</linearGradient>
					<path style="fill:url(#SVGID_00000021817682977501197210000006670823954714714756_);" d="M227.287,458.566
						c-5.748-0.877-10.456-1.603-16.204-2.48c-1.758-0.268-3.604-0.571-5.017-1.592c-0.779-0.563-1.51-1.37-2.488-1.375
						c-0.757-0.004-1.381,0.492-2.107,0.662c-0.637,0.149-1.318,0.039-1.975-0.072c-2.004-0.337-4.008-0.674-6.011-1.011
						c-0.661-0.111-1.386-0.256-1.81-0.74c-0.498-0.57-0.384-1.374-0.217-2.066c0.66-2.741,1.732-5.387,3.178-7.842
						c0.329-0.559,0.775-1.168,1.476-1.23c0.645-0.057,1.222,0.375,1.727,0.764c2.046,1.574,4.865,2.945,7.214,1.946
						c0.611-0.259,1.152-0.67,1.819-0.786c0.737-0.128,1.499,0.127,2.209,0.387c6.128,2.241,11.957,5.214,17.287,8.816
						c1.209,0.817,2.446,1.728,3.018,2.99c0.572,1.261,0.194,2.954-1.164,3.446"/>
				</g>
			</g>
			<g>
				<path style="fill:#F7B094;" d="M299.516,426.953c-0.065,3.048-0.13,6.097-0.195,9.146c-0.013,0.593-0.024,1.195,0.129,1.768
					c0.598,2.24,3.323,3.129,4.593,5.064c0.135,0.206,0.256,0.434,0.268,0.68c0.038,0.788-0.933,1.16-1.703,1.295
					c-2.253,0.395-4.507,0.789-6.76,1.184c-0.851,0.149-1.868,0.244-2.442-0.41c-0.259-0.295-0.369-0.689-0.472-1.068
					c-1.501-5.538-3.003-11.076-4.504-16.615"/>
			</g>
			<g>
				<g>
					
						<linearGradient id="SVGID_00000183241638011002597150000004523690698393126024_" gradientUnits="userSpaceOnUse" x1="287.8531" y1="449.0458" x2="325.7829" y2="449.0458" gradientTransform="matrix(1.0815 -0.0232 0.0214 0.9998 -33.0443 6.6716)">
						<stop  offset="0" style="stop-color:#635C92"/>
						<stop  offset="0.0039" style="stop-color:#625B91"/>
						<stop  offset="0.0915" style="stop-color:#4D4583"/>
						<stop  offset="0.1942" style="stop-color:#3D3478"/>
						<stop  offset="0.3222" style="stop-color:#322970"/>
						<stop  offset="0.5016" style="stop-color:#2C226B"/>
						<stop  offset="1" style="stop-color:#2A206A"/>
					</linearGradient>
					<path style="fill:url(#SVGID_00000183241638011002597150000004523690698393126024_);" d="M327.003,454.318
						c-6.148,0.35-11.186,0.629-17.334,0.979c-1.88,0.107-3.859,0.197-5.547-0.579c-0.931-0.428-1.865-1.127-2.879-0.914
						c-0.785,0.165-1.323,0.836-2.039,1.18c-0.628,0.302-1.358,0.337-2.063,0.366c-2.15,0.089-4.3,0.177-6.45,0.266
						c-0.71,0.029-1.492,0.037-2.037-0.386c-0.641-0.498-0.698-1.384-0.677-2.162c0.085-3.081,0.617-6.152,1.578-9.102
						c0.219-0.671,0.547-1.423,1.26-1.647c0.655-0.206,1.348,0.127,1.957,0.43c2.464,1.225,5.685,2.06,7.901,0.464
						c0.576-0.414,1.047-0.975,1.713-1.249c0.736-0.302,1.581-0.2,2.373-0.081c6.84,1.024,13.531,2.898,19.841,5.556
						c1.432,0.603,2.913,1.301,3.781,2.522c0.869,1.221,0.847,3.117-0.452,3.948"/>
				</g>
			</g>
			<path style="fill:#545AA4;" d="M270.828,240.161l30.146,195.224l-11.763-0.841c0,0-16.422-63.001-21.119-83.906
				c-4.697-20.904-20.367-66.693-22.455-70.648c-2.088-3.955-3.12-6.189-3.12-6.189s-10.139,59.46-13.068,70.143
				c-3.719,13.56-4.502,16.949-10.374,40.89c-7.149,29.147-9.199,47.458-9.199,47.458l-14.288-1.695l10.915-96.061
				c0,0,0.522-64.69,0.522-75.424s2.088-37.289,2.088-37.289L270.828,240.161z"/>
			<path style="fill:#7663E5;" d="M288.74,437.217l11.434-1.135c2.05-0.204,3.566-2.003,3.418-4.058l0,0
				c-0.153-2.136-2.039-3.724-4.17-3.512l-11.434,1.135c-2.05,0.203-3.566,2.003-3.418,4.058l0,0
				C284.724,435.841,286.609,437.429,288.74,437.217z"/>
			<path style="fill:#7663E5;" d="M196.364,436.778l11.394,0.995c2.116,0.185,3.975-1.396,4.133-3.514v0
				c0.155-2.08-1.391-3.899-3.469-4.08l-11.394-0.995c-2.116-0.185-3.975,1.396-4.133,3.514l0,0
				C192.739,434.778,194.285,436.596,196.364,436.778z"/>
			<g style="opacity:0.31;">
				<g>
					<path style="fill:#B4C8F3;" d="M229.967,244.22c-1.182,9.317-6.705,16.481-14.498,20.128c0.173-6.669,0.276-13.34,0.283-20.011
						c0.001-0.752-1.054-0.753-1.054,0c-0.028,25.096-1.327,50.167-3.201,75.17c-1.875,25.01-4.297,49.967-6.631,74.928
						c-1.309,14.001-1.961,20.576-3.27,34.576c-0.07,0.747,0.985,0.742,1.054,0c2.335-24.982,4.046-42.536,6.339-67.523
						c2.291-24.973,4.411-49.975,5.646-75.043c0.342-6.938,0.614-13.88,0.804-20.824c8.293-3.747,14.568-11.473,15.82-21.34
						C231.353,243.546,230.061,243.477,229.967,244.22z"/>
				</g>
			</g>
		</g>
		<g>
			<g>
				<path style="fill:#B4C8F3;" d="M211.726,261.35c21.233-0.803,42.465-1.606,63.698-2.409c-3.177-20.321-5.9-40.725-8.164-61.189
					c-1.413-12.767-2.692-25.751-7.178-37.657c-4.486-11.906-12.736-22.819-24.013-26.845c-11.276-4.027-25.508,0.73-30.436,12.43
					c-1.685,4.001-2.22,8.445-2.59,12.823c-2.989,35.323,3.421,70.697,9.8,105.488"/>
			</g>
			<g style="opacity:0.5;">
				<path style="fill:#98A2FF;" d="M239.403,133.786c-0.224-1.224-3.933,3.883-4.149,2.623c-1.618-0.949,2.585-2.526,0.815-3.159
					c-2.915-1.041-6.027-1.484-9.126-1.382c-0.35,0.476-0.665,0.978-0.928,1.505c-2.244,4.502-2.022,9.907-1.906,15.022
					c0.486,21.38-1.897,42.715-2.246,64.098c-0.265,16.231,0.725,32.781,4.866,48.289c6.719-0.254,23.591-0.508,30.311-0.762
					C253.926,220.333,246.665,173.5,239.403,133.786z"/>
			</g>
		</g>
		<g>
			<g>
				<path style="fill:#38303B;" d="M232.643,117.536c-8.232,2.455-16.732,0.848-21.997-2.78c-5.265-3.628-7.777-8.976-9.31-14.44
					c-1.326-4.727-1.998-9.763-0.281-14.951c1.717-5.188,6.143-10.579,12.75-13.768c4.47-2.157,9.556-3.155,14.427-3.623
					c3.177-0.306,6.435-0.394,9.03,0.46c2.402,0.79,4.029,2.32,5.317,3.953c4.527,5.742,9.562,7.286,6.897,12.412
					c-0.809,1.556-9.872,7.256-11.6,11.875c-1.562,4.175,4.381,16.632-0.825,19.345"/>
			</g>
			<path style="fill:#F7B094;" d="M223.237,140.795c-1.693-0.976-3.065-2.548-3.175-4.694c-0.278-5.395-0.709-13.332-0.881-16.979
				c-0.071-1.499-0.142-3-0.155-4.503c-0.003-0.34,0.005-0.71,0.186-0.979c0.151-0.226,0.393-0.333,0.626-0.411
				c2.303-0.769,4.68,0.392,7.039,0.721c2.884,0.402,5.826-0.457,8.723-0.171c0.348,0.034,0.735,0.112,0.939,0.444
				c0.118,0.193,0.152,0.439,0.182,0.675c0.553,4.282,1.512,13.41,2.158,18.802c0.146,1.214,0.732,2.828,0.05,3.818l-1.149,2.027
				c-1.937,2.815-6.866,4.239-9.82,3.088C227.959,142.634,225.059,141.844,223.237,140.795z"/>
			<path style="fill:#E89C82;" d="M219.211,113.641c0.151-0.226,0.393-0.333,0.626-0.411c2.303-0.768,4.68,0.392,7.039,0.721
				c2.884,0.402,5.826-0.457,8.723-0.172c0.348,0.034,0.735,0.112,0.939,0.443c0.118,0.193,0.152,0.439,0.182,0.675
				c0.309,2.393,0.619,4.787,0.928,7.18c-2.382,1.869-5.047,3.174-7.858,3.535c-3.858,0.495-7.954-1.05-10.508-4.354
				c-0.034-0.712-0.067-1.424-0.101-2.136c-0.071-1.499-0.142-3-0.155-4.503C219.023,114.28,219.031,113.91,219.211,113.641z"/>
			<path style="fill:#F7B094;" d="M211.723,106.439c-3.073-0.674-5.721-2.633-5.951-4.99c-0.23-2.358,2.525-4.816,5.736-4.687"/>
			<g>
				<path style="fill:#F7B094;" d="M213.219,110.844c5.076,10.83,13.48,10.594,22.473,11.54c1.589,0.167,4.146-0.156,5.722-0.666
					c3.868-1.254,5.044-5.367,5.307-8.7c0.457-5.801,0.219-11.574-0.709-17.205c-0.638-3.876-1.645-7.771-4.142-10.928
					c-2.497-3.157-6.732-5.488-11.532-5.27c-5.977,0.272-11.328,4.327-14.64,8.761c-4.887,6.544-6.59,14.769-3.099,21.141"/>
			</g>
			<g>
				<path style="fill:#F7B094;" d="M245.972,95.63c0.577,3.572,0.626,2.95,1.303,4.918c0.073,0.213,0.799,1.863,2.144,2.429
					c1.061,0.446,1.531,1.856,0.819,2.834c-0.396,0.544-0.824,0.838-1.46,1.089c-0.898,0.355-1.843,0.297-2.492-0.355"/>
			</g>
			<path style="fill:#38303B;" d="M233.61,90.6c-0.132,0.103,0.023,0.261,0.216,0.271c0.192,0.01,0.378-0.069,0.549-0.142
				c2.081-0.879,4.697-1.105,6.872-0.595c0.334,0.078,0.674,0.174,1.038,0.15c0.365-0.024,0.758-0.221,0.755-0.463
				c-0.001-0.104-0.073-0.198-0.158-0.281c-0.358-0.35-0.947-0.562-1.555-0.701c-1.964-0.45-4.326-0.222-6.174,0.599
				c-0.691,0.306-1.337,0.715-1.608,1.231"/>
			<path style="opacity:0.24;fill:#E66E60;" d="M225.643,107.586c0.365,2.606,2.983,4.33,5.847,3.849
				c2.864-0.48,4.89-2.982,4.525-5.588c-0.365-2.606-2.983-4.33-5.847-3.849C227.304,102.479,225.278,104.98,225.643,107.586z"/>
			<path style="fill:#38303B;" d="M237.4,96.458c-0.115,1.392,0.474,2.564,1.316,2.618c0.842,0.054,1.618-1.031,1.734-2.424
				c0.115-1.392-0.474-2.564-1.316-2.617C238.291,93.981,237.515,95.066,237.4,96.458z"/>
			<g>
				<path style="fill:#38303B;" d="M233.416,75.668c9.643-7.363,8.759-15.128,6.478-13.034c-5.828,5.349-12.39,6.148-20.178,7.551
					c-1.854,0.334-4.426,4.998-6.271,5.384c-4.976,1.041-8.449,5.908-8.915,10.725c-0.466,4.818,0.103,5.353,2.714,9.416
					l4.083,0.495c0.019-0.04,0.163,1.644,0.534,3.341c0.042,0.19,0.232,1.988,0.75,2.66c0.719,0.931,2.214,0.537,2.403-0.624
					c1.058-6.532,3.107-12.367,8.479-15.716c1.485-0.702,3.031-1.277,4.624-1.687c3.59-0.923,2.609-0.965,6.237-1.724
					c3.628-0.759,7.319-2.213,9.626-5.023C246.513,74.348,230.348,78.011,233.416,75.668z"/>
			</g>
			<g>
				<g>
					<path style="fill:#38303B;" d="M242.054,94.254c-0.945-0.62-2.222-0.779-3.327-0.758c-1.07,0.021-2.277,0.21-3.142,0.885
						c-0.359,0.28,0.145,0.778,0.501,0.501c0.725-0.565,1.872-0.674,2.752-0.678c0.953-0.004,2.043,0.127,2.859,0.662
						C242.079,95.117,242.434,94.504,242.054,94.254L242.054,94.254z"/>
				</g>
			</g>
			<g>
				<path style="fill:#38303B;" d="M235.5,69.253c1.353,0.018,1.128,0.124,2.433-0.106c0.974-0.172,1.871-0.585,2.76-0.995
					c2.898-1.337,5.797-2.674,8.695-4.011c0.313-0.145,0.66-0.29,1.014-0.156c0.594,0.225,0.848,1.068,0.927,1.759
					c0.31,2.732-0.406,5.416-1.928,7.23c2.541,0.008,4.951-0.922,6.795-2.622c1.108,2.079,0.996,4.633,0.09,6.492
					c-0.906,1.859-2.495,3.108-4.202,3.99c-3.713,1.917-8.181,2.28-12.512,1.016c1.15,0.604,1.403,2.535,0.727,3.542
					c-0.676,1.007-1.905,1.296-3.074,1.417c-2.574,0.269-5.264-0.012-7.897-0.825c0.941,1.387,0.475,3.357-0.641,4.177
					c-1.116,0.82-2.645,0.756-4.077,0.469c-2.252-0.452-4.493-1.399-6.561-2.773"/>
			</g>
			<g>
				<defs>
					<path id="SVGID_00000045581291502008405890000013065785172094093192_" d="M246.564,114.426
						c0.126-0.951,0.285-2.473,0.294-3.746c0.001-0.195-0.011-0.395-0.118-0.557c-0.123-0.185-0.353-0.262-0.567-0.321
						c-1.209-0.335-2.463-0.513-3.718-0.526c-0.764-0.008-1.558,0.052-2.228,0.422s-1.179,1.12-1.054,1.875
						c0.048,0.29,0.183,0.558,0.342,0.806c0.25,0.39,0.563,0.74,0.923,1.031c0.674,0.546,1.493,0.876,2.302,1.19
						c1.323,0.512,2.667,1.002,4.071,1.203"/>
				</defs>
				<clipPath id="SVGID_00000102509392316999412960000018090529099305613965_">
					<use xlink:href="#SVGID_00000045581291502008405890000013065785172094093192_"  style="overflow:visible;"/>
				</clipPath>
				<g style="clip-path:url(#SVGID_00000102509392316999412960000018090529099305613965_);">
					<path style="fill:#E66E60;" d="M253.089,110.432c-2.318,2.601-4.849,3.461-8.208,2.915c-1.047-0.17-3.607-1.682-4.127-2.601
						c4.142,1.354,8.406,1.316,12.387-0.469"/>
				</g>
				<g style="clip-path:url(#SVGID_00000102509392316999412960000018090529099305613965_);">
					<path style="fill:#FFFFFF;" d="M253.089,110.432c-2.632,1.325-5.845,1.824-10.174,1.22c-0.98-0.137-1.965-0.437-2.471-0.978
						c4.12,0.748,9.009,0.598,13.014-0.524L253.089,110.432z"/>
				</g>
			</g>
			<path style="fill:none;stroke:#FFFFFF;stroke-miterlimit:10;" d="M233.849,97.168c0.504,3.083,3.343,5.185,6.341,4.695
				c2.998-0.49,5.02-3.386,4.517-6.469c-0.504-3.083-3.343-5.185-6.341-4.695C235.367,91.189,233.345,94.085,233.849,97.168z"/>
			<g>
				<g>
					<path style="fill:#FFFFFF;" d="M246.277,94.685c-0.286-0.029-0.587,0.013-0.872,0.044c-0.307,0.033-0.628,0.059-0.927,0.139
						c-0.25,0.067-0.429,0.356-0.346,0.61c0.083,0.257,0.342,0.419,0.61,0.346c0.156-0.042,0.32-0.062,0.479-0.083
						c-0.044,0.006-0.088,0.012-0.132,0.018c0.222-0.03,0.445-0.054,0.669-0.071c0.171-0.013,0.347-0.028,0.519-0.011
						c0.119,0.012,0.269-0.064,0.351-0.145c0.086-0.086,0.151-0.227,0.145-0.351c-0.006-0.128-0.048-0.261-0.145-0.351
						C246.525,94.736,246.414,94.699,246.277,94.685L246.277,94.685z"/>
				</g>
			</g>
			<g>
				<g>
					<path style="fill:#FFFFFF;" d="M211.353,96.783c6.204-0.156,12.424,0.055,18.629,0.112c1.119,0.01,2.239,0.027,3.358,0.014
						c0.638-0.007,0.64-1,0-0.992c-5.971,0.07-11.949-0.131-17.921-0.15c-1.355-0.004-2.711-0.01-4.065,0.024
						C210.715,95.807,210.713,96.799,211.353,96.783L211.353,96.783z"/>
				</g>
			</g>
		</g>
		<g>
			<g>
				<path style="fill:#EBF0FE;" d="M233.042,138.441c5.921,12.987,19.607,123.72,25.096,188.172
					c0.119,1.396,0.223,2.877-0.397,4.114c-0.91,1.817-3.045,2.51-4.978,2.989c-8.649,2.143-31.154,5.029-40.068,5.305
					c-3.214,0.1-11.64-3.64-11.869-6.951c-4.088-59.182-4.595-109.877-2.644-173.278c0.221-7.165,2.368-16.779,6.461-22.522
					c4.093-5.743,14.707-9.207,19.088-3.574"/>
			</g>
			<g>
				<path style="fill:#B4C8F3;" d="M218.519,123.477c5.894,2.574,12.092,4.814,18.539,6.698c0.523,0.153,1.077,0.322,1.347,0.684
					c0.188,0.253,0.213,0.569,0.234,0.875c0.241,3.452-0.285,7.25-0.813,10.342c-0.221,1.292-1.866,2.276-3.416,2.05
					c-10.902-1.59-19.031-5.537-24.034-12.926c-0.828-1.223-1.078-3.394-1.088-4.853c-0.01-1.46,0.813-3.099,2.493-4.081
					c1.68-0.982,4.234-1.031,5.209,0.118"/>
			</g>
		</g>
		<g>
			<g>
				<path style="fill:#545AA4;" d="M302.841,104.005c-0.913-11.114-5.009-19.848-9.147-19.508c-4.139,0.34-6.753,9.626-5.84,20.74
					c0.827,10.058,4.259,18.165,7.971,19.364c0.003,0.08,0.004,0.158,0.011,0.24l2.394,29.132c0.104,1.27,0.572,2.268,1.045,2.23
					l0.761-0.063c0.473-0.039,0.772-1.1,0.667-2.37l-2.394-29.132c-0.009-0.105-0.023-0.205-0.037-0.305
					C301.657,122.392,303.656,113.931,302.841,104.005z"/>
				<path style="fill:#EBF0FE;" d="M300.194,104.11c0.757,9.209-0.943,16.864-3.797,17.099c-2.854,0.235-5.781-7.041-6.538-16.25
					c-0.757-9.209,0.943-16.864,3.797-17.099C296.511,87.626,299.438,94.901,300.194,104.11z"/>
				<path style="opacity:0.31;fill:#FFFFFF;" d="M300.194,104.11c-0.172-2.099-0.459-4.096-0.83-5.928l-8.499,13.531
					c0.821,3.681,1.993,6.604,3.282,8.191l6.198-9.868C300.41,108.184,300.365,106.188,300.194,104.11z"/>
				<path style="opacity:0.31;fill:#FFFFFF;" d="M296.418,89.875l-6.737,10.726c-0.002,1.395,0.055,2.856,0.179,4.359
					c0.08,0.978,0.187,1.932,0.313,2.86l8.296-13.208C297.873,92.66,297.172,91.039,296.418,89.875z"/>
			</g>
			<g>
				<path style="fill:#F7B094;" d="M285.527,151.714c5.247-5.357,7.087-13.208,11.676-19.138c0.575-0.743,1.397-1.528,2.311-1.316
					c0.686,0.159,1.135,0.863,1.223,1.561c0.087,0.699-0.111,1.398-0.306,2.075c0.834-0.06,1.529,0.741,1.659,1.567
					c0.13,0.826-0.153,1.655-0.431,2.443c1.724-0.277,2.107,1.766,0.958,3.425c-0.291,0.42,2.681,1.277-0.255,4.213
					c-2.618,2.618-2.623,2.656-4.414,4.025c-0.796,0.608-1.429,1.399-2.053,2.182c-1.558,1.952-3.115,3.904-4.673,5.856"/>
			</g>
			<g>
				<path style="fill:#997FFF;" d="M255.984,176.954c-6.983-8.528-11.712-13.872-19.028-21.975
					c-3.83-4.242-10.898-10.72-16.555-12.699c-5.658-1.979-11.135-1.707-15.369,2.611c-4.191,4.273-2.77,9.014-0.245,13.981
					c2.526,4.967,8.244,10.61,12.711,14.203c8.101,6.515,15.042,12.39,23.768,18.02c5.963,3.847,11.444,7.761,19.04,6.205
					c4.577-0.937,7.185-3.855,10.434-7.05c7.468-7.344,14.24-15.376,20.282-23.724c1.648-2.276,2.838-5.861,2.618-8.507
					c-0.27-3.245-1.624-3.793-4.371-5.743c-1.516-1.076-3.296-2.212-5.243-1.843c-1.359,0.257-2.458,1.2-3.472,2.1
					c-8.188,7.266-16.095,17.297-24.283,24.563"/>
			</g>
		</g>
	</g>
</g>
</svg>
