<svg width="128" height="112" viewBox="0 0 128 112" fill="none" xmlns="http://www.w3.org/2000/svg">
<path d="M62.5205 20.2656L60.4558 15.6695L62.5205 11.0726L68.1643 7.71022L75.8729 6.4798L83.5798 7.71022L84.7566 8.41211L63.6973 20.9682L62.5205 20.2656ZM92.2574 3.93965L90.2381 2.73939L77.0416 0.628885L63.8483 2.73939L54.1822 8.50112L50.9666 15.6609L50.6469 15.7363V16.3682L54.1854 24.237L56.2014 25.4375L54.0539 26.7182L53.0184 26.7031V27.3364L60.6652 31.8945L103.62 6.28198V5.65018L92.2574 3.93965Z" fill="#213F5A"/>
<path d="M62.5205 19.6354L60.4558 15.0386L62.5205 10.4424L68.1643 7.07936L75.8729 5.84893L83.5798 7.07936L84.7566 7.78007L63.6973 20.3375L62.5205 19.6354ZM92.2574 3.31079L90.2381 2.10919L77.0416 3.24249e-05L63.8483 2.10735L54.1822 7.86909L50.6469 15.7361L54.1854 23.6063L56.2014 24.8086L53.0184 26.7029L60.6652 31.2637L103.62 5.64995L95.9761 1.09301L92.2574 3.31079Z" fill="#4D8FBD"/>
<path d="M61.988 30.4727L62.5107 30.1622L60.3177 28.8565L59.7935 29.165L61.988 30.4727Z" fill="white"/>
<path d="M64.6371 28.894L65.163 28.5816L62.9636 27.2759L62.4458 27.5877L64.6371 28.894Z" fill="white"/>
<path d="M67.283 27.3145L67.8089 27.0026L65.6128 25.6969L65.095 26.0088L67.283 27.3145Z" fill="white"/>
<path d="M69.9337 25.7373L70.458 25.4268L68.2618 24.1166L67.7391 24.4296L69.9337 25.7373Z" fill="white"/>
<path d="M72.581 24.1582L73.1053 23.8426L70.9124 22.5389L70.3896 22.8505L72.581 24.1582Z" fill="white"/>
<path d="M75.2284 22.5757L75.7543 22.2654L73.5598 20.9577L73.0371 21.2713L75.2284 22.5757Z" fill="white"/>
<path d="M77.8791 20.998L78.4018 20.6878L76.2089 19.3787L75.6846 19.6937L77.8791 20.998Z" fill="white"/>
<path d="M80.5249 19.4204L81.0508 19.1068L78.8563 17.8011L78.3336 18.1114L80.5249 19.4204Z" fill="white"/>
<path d="M83.1755 17.8398L83.6981 17.5314L81.5052 16.2205L80.9825 16.5341L83.1755 17.8398Z" fill="white"/>
<path d="M85.8262 16.2603L86.3456 15.9486L84.1543 14.6409L83.6284 14.9534L85.8262 16.2603Z" fill="white"/>
<path d="M88.472 14.6831L88.9931 14.3715L86.8018 13.0638L86.2775 13.3742L88.472 14.6831Z" fill="white"/>
<path d="M91.1212 13.1045L91.6422 12.7929L89.4477 11.4851L88.925 11.7988L91.1212 13.1045Z" fill="white"/>
<path d="M93.7701 11.5249L94.2927 11.2119L92.0966 9.90556L91.5756 10.216L93.7701 11.5249Z" fill="white"/>
<path d="M96.416 9.9458L96.9419 9.63417L94.7441 8.32462L94.2263 8.63626L96.416 9.9458Z" fill="white"/>
<path d="M99.0635 8.3667L99.591 8.05171L97.3932 6.74719L96.8738 7.05966L99.0635 8.3667Z" fill="white"/>
<path d="M99.5228 5.47837L101.714 6.78809L102.237 6.47629L100.045 5.16858L99.5228 5.47837Z" fill="white"/>
<path d="M88.9622 77.9971L39.2017 48.3291L39.8656 47.9337V48.428L88.9314 77.6834L127.429 54.7346V54.381L128 54.7208L88.9622 77.9971Z" fill="#2F6868"/>
<path d="M88.9314 77.6831L127.429 54.7342V53.5811L114.771 59.7914L97.3103 70.5522L87.3472 75.5909L88.9314 77.6831Z" fill="#503017"/>
<path d="M39.8656 48.4277L88.9314 77.6831V76.5383L78.6907 65.6489L58.4836 53.3846L39.8656 47.2798V48.4277Z" fill="#75411A"/>
<path d="M88.9315 76.5386L39.8656 47.28L78.358 24.3274L127.429 53.5813L88.9315 76.5386Z" fill="#B5652D"/>
<path d="M41.0748 47.2801L88.9314 75.8125L96.0961 70.6009L41.0748 44.985V47.2801Z" fill="#F6F2EB"/>
<path d="M88.9314 73.5181L99.3296 68.6966L119.949 56.1038L126.218 51.283L78.3579 22.7519L41.0748 44.985L88.9314 73.5181Z" fill="white"/>
<path d="M88.9314 75.8125L126.218 53.5815V51.283L88.9314 73.5181V75.8125Z" fill="#D2D2D0"/>
<path d="M49.7606 101.361L0 71.6934L39.0426 48.4126L88.8032 78.0837L49.7606 101.361Z" fill="#2F6868"/>
<path d="M49.733 101.05L88.2303 78.0946V76.9493L75.5694 83.1536L58.1136 93.9157L48.1504 98.9564L49.733 101.05Z" fill="#503017"/>
<path d="M0.663818 71.7912L49.7329 101.05V99.9L39.4906 89.009L19.2834 76.7495L0.663818 70.6428V71.7912Z" fill="#75411A"/>
<path d="M49.7329 99.8999L0.663818 70.6427L39.1594 47.6918L88.2301 76.9492L49.7329 99.8999Z" fill="#B5652D"/>
<path d="M1.87476 70.6428L49.7329 99.1777L56.8993 93.9642L1.87476 68.3483V70.6428Z" fill="#F6F2EB"/>
<path d="M49.7329 96.8823L60.1311 92.0595L80.7489 79.4667L87.016 74.6506L39.1595 46.1142L1.87476 68.3479L49.7329 96.8823Z" fill="white"/>
<path d="M49.733 99.1777L87.0162 76.9494V74.6509L49.733 96.8827V99.1777Z" fill="#D2D2D0"/>
<path d="M33.2932 56.1948L35.0252 57.7822L35.4862 57.5057L47.0076 64.3715L46.5417 64.6486L49.2021 65.6825L49.517 65.8685L47.0676 67.3307L23.843 61.457L32.9783 56.0069L33.2932 56.1948ZM40.3395 71.3402L24.1449 61.6862L46.8826 67.4414L40.3395 71.3402ZM40.1707 71.4443L33.6227 75.347L23.9793 61.7882L40.1707 71.4443ZM35.6566 57.405L36.1192 57.1285L33.4636 56.0959L33.0611 55.8544H32.8923L23.6027 61.398L23.408 61.3444L23.5183 61.5068L33.4717 75.4977L33.5415 75.5952L47.1763 67.4662L47.3046 67.3909L49.767 65.9221V65.82L49.3693 65.5823L47.6373 63.9943L47.1748 64.2694L35.6566 57.405Z" fill="#213F5A"/>
<path d="M57.4479 70.5976L59.1767 72.1815L59.6376 71.9033L68.4402 77.1524L67.9792 77.4273L70.6331 78.4599L70.9497 78.6505L64.702 82.3725V77.6283L58.839 74.133H50.8854L57.1314 70.4083L57.4479 70.5976ZM64.465 82.5166L64.2102 82.6672L61.7705 84.1222L54.9482 80.0524L61.6877 76.0306L64.465 77.6853V82.5166ZM54.609 80.0524L47.6975 84.1745L44.9218 82.5166V77.6853L47.7819 75.9821L54.609 80.0524ZM61.6033 84.2211L58.7416 85.9275H50.6435L47.863 84.2735L54.7746 80.1513L61.6033 84.2211ZM47.9523 75.8814L50.3919 74.4263L50.6435 74.2756L58.7416 74.2738L61.514 75.9317L54.7746 79.9483L47.9523 75.8814ZM59.8097 71.8064L60.2723 71.5301L57.6151 70.4973L57.2142 70.2591H57.0454L50.5461 74.133L50.2215 74.3242L44.6799 77.6283V82.5748L50.5461 86.0703H58.839L64.3774 82.7681L64.702 82.5748L71.2029 78.6996V78.5975L70.8019 78.3592L69.0716 76.7752L68.6106 77.0515L59.8097 71.8064Z" fill="#213F5A"/>
<path d="M78.449 70.8187H77.6147L77.0222 71.1724V71.6688L77.6147 72.021H78.449L79.0382 71.6688V71.1724L78.449 70.8187Z" fill="#614F49"/>
<path d="M70.9269 66.8292L70.3345 67.1814V67.6823L70.9269 68.0347H71.758L72.3521 67.6823V67.1814L71.758 66.8292H70.9269Z" fill="#614F49"/>
<path d="M64.2394 62.8428L63.647 63.1912V63.6941L64.2394 64.0444H65.0753L65.6646 63.6941V63.1912L65.0753 62.8428H64.2394Z" fill="#614F49"/>
<path d="M57.5486 58.853L56.9594 59.2067V59.7062L57.5486 60.0586H58.3829L58.9803 59.7062V59.2067L58.3829 58.853H57.5486Z" fill="#614F49"/>
<path d="M50.8644 54.8667L50.2703 55.2171V55.7168L50.8644 56.0703H51.6954L52.2879 55.7168V55.2171L51.6954 54.8667H50.8644Z" fill="#614F49"/>
<path d="M44.1752 50.8785L43.5828 51.2288V51.7317L44.1752 52.0801H45.0112L45.6036 51.7317V51.2288L45.0112 50.8785H44.1752Z" fill="#614F49"/>
<path d="M83.8881 67.5831H83.0521L82.4613 67.9321V68.4361L83.0521 68.7852H83.8881L84.4805 68.4361V67.9321L83.8881 67.5831Z" fill="#614F49"/>
<path d="M76.368 63.5954L75.7755 63.9509V64.4473L76.368 64.7988H77.1991L77.7883 64.4473V63.9509L77.1991 63.5954H76.368Z" fill="#614F49"/>
<path d="M69.6754 59.6056L69.0862 59.9612V60.4589L69.6754 60.8145H70.5113L71.0989 60.4589V59.9612L70.5113 59.6056H69.6754Z" fill="#614F49"/>
<path d="M62.9863 55.6197L62.3987 55.9701V56.4711L62.9863 56.8267H63.8206L64.4147 56.4711V55.9701L63.8206 55.6197H62.9863Z" fill="#614F49"/>
<path d="M56.3005 51.6302L55.7096 51.9837V52.4846L56.3005 52.835H57.1331L57.7224 52.4846V51.9837L57.1331 51.6302H56.3005Z" fill="#614F49"/>
<path d="M49.6097 47.6455L49.0221 47.9972V48.4936L49.6097 48.8491H50.4473L51.0381 48.4936V47.9972L50.4473 47.6455H49.6097Z" fill="#614F49"/>
<path d="M78.1584 71.959L77.1357 71.352V70.9552H78.1584L78.4895 71.5667L78.1584 71.959Z" fill="#D9D1C3"/>
<path d="M78.1584 71.5664L77.1357 70.9549L78.9635 67.6775H79.9861L80.3432 68.291L78.1584 71.5664Z" fill="#E8E2DC"/>
<path d="M79.986 68.291L78.9634 67.6775L81.554 66.1314L82.5782 66.7451L80.7083 68.2256L79.986 68.291Z" fill="#F6F2EB"/>
<path d="M84.4091 67.8369L82.5782 66.7454L79.9859 68.2913L78.1582 71.5667V71.959L78.9698 71.4764L80.3219 69.0556L82.2454 67.9123L83.6024 68.7223L84.4091 68.2343V67.8369Z" fill="#9F988F"/>
<path d="M71.4644 67.9722L70.4434 67.3618V66.9664H71.4644L71.7987 67.5747L71.4644 67.9722Z" fill="#D9D1C3"/>
<path d="M71.4644 67.5747L70.4434 66.9664L72.2711 63.6876H73.2986L73.6508 64.2993L71.4644 67.5747Z" fill="#E8E2DC"/>
<path d="M73.2985 64.2993L72.271 63.6876L74.8681 62.1436L75.8907 62.7552L74.0224 64.2324L73.2985 64.2993Z" fill="#F6F2EB"/>
<path d="M77.7216 63.8487L75.8907 62.7552L73.2984 64.2993L71.4642 67.5747V67.9722L72.2807 67.4875L73.6328 65.0674L75.5563 63.9208L76.9117 64.7301L77.7216 64.2443V63.8487Z" fill="#9F988F"/>
<path d="M64.7783 63.9844L63.7524 63.374V62.9766H64.7783L65.1062 63.5856L64.7783 63.9844Z" fill="#D9D1C3"/>
<path d="M64.7783 63.5854L63.7524 62.9764L65.5834 59.6997H66.606L66.9582 60.3114L64.7783 63.5854Z" fill="#E8E2DC"/>
<path d="M66.6061 60.3115L65.5835 59.6998L68.1757 58.1539L69.1967 58.7661L67.3317 60.2446L66.6061 60.3115Z" fill="#F6F2EB"/>
<path d="M71.0309 59.8571L69.1966 58.7661L66.606 60.3115L64.7783 63.5856V63.9844L65.5883 63.5018L66.9436 61.0743L68.8655 59.9323L70.2209 60.7403L71.0309 60.2545V59.8571Z" fill="#9F988F"/>
<path d="M58.0893 59.9966L57.0618 59.383V58.9888H58.0893L58.4187 59.5991L58.0893 59.9966Z" fill="#D9D1C3"/>
<path d="M58.0893 59.5991L57.0618 58.9888L58.8927 55.7134H59.9234L60.2724 56.3237L58.0893 59.5991Z" fill="#E8E2DC"/>
<path d="M59.9233 56.3237L58.8926 55.7134L61.4881 54.168L62.5107 54.7763L60.6391 56.2548L59.9233 56.3237Z" fill="#F6F2EB"/>
<path d="M64.3434 55.8693L62.5108 54.7763L59.9234 56.3237L58.0892 59.5991V59.9966L58.8992 59.5099L60.2562 57.0846L62.1764 55.9445L63.5334 56.7525L64.3434 56.2634V55.8693Z" fill="#9F988F"/>
<path d="M51.3951 56.0068L50.3708 55.3965V54.9977H51.3951L51.7262 55.6094L51.3951 56.0068Z" fill="#D9D1C3"/>
<path d="M51.3951 55.6094L50.3708 54.9977L52.2051 51.7256H53.2293L53.5783 52.3372L51.3951 55.6094Z" fill="#E8E2DC"/>
<path d="M53.2293 52.3369L52.2051 51.7254L54.7989 50.1793L55.8215 50.7897L53.9516 52.2702L53.2293 52.3369Z" fill="#F6F2EB"/>
<path d="M57.6524 51.8827L55.8214 50.7899L53.2292 52.3372L51.395 55.6094V56.0068L52.2131 55.521L53.5652 53.1001L55.4838 51.9568L56.8408 52.7662L57.6524 52.2783V51.8827Z" fill="#9F988F"/>
<path d="M44.7108 52.019L43.6818 51.4087V51.0099H44.7108L45.0387 51.6196L44.7108 52.019Z" fill="#D9D1C3"/>
<path d="M44.7108 51.6196L43.6818 51.0099L45.5127 47.7327H46.5386L46.8924 48.3442L44.7108 51.6196Z" fill="#E8E2DC"/>
<path d="M46.5384 48.3442L45.5126 47.7327L48.1065 46.1866L49.129 46.8022L47.2624 48.2787L46.5384 48.3442Z" fill="#F6F2EB"/>
<path d="M50.9585 47.8917L49.1291 46.8021L46.5385 48.3442L44.7108 51.6196V52.019L45.5192 51.5344L46.8713 49.1123L48.798 47.967L50.1518 48.7738L50.9585 48.2872V47.8917Z" fill="#9F988F"/>
<path d="M65.4276 99.5322L64.4764 99.385L63.6356 98.8768L63.384 98.3189L63.8775 98.0289L64.8303 97.4591L64.7881 97.3766L65.3189 97.0585L92.0691 81.1333L97.2957 79.3698L94.2783 82.4624L67.5362 98.3811L67.0086 98.6941L66.8625 98.6744L65.9081 99.2409L65.4276 99.5322Z" fill="#2F6868"/>
<path d="M96.0961 78.8296L95.8689 78.5651L97.2957 78.171L96.0961 78.8296Z" fill="#7D6563"/>
<path d="M96.2536 79.2393L96.1351 78.9137L97.2957 78.1713L96.2536 79.2393Z" fill="#392E2B"/>
<path d="M96.2537 78.9692H96.1189L96.0962 78.691L97.2958 78.1711L96.2537 78.9692Z" fill="#614F49"/>
<path d="M93.8268 81.7534L92.5786 80.7758L92.551 79.4602L93.8739 79.2304L96.0961 78.6908L96.2535 78.969L94.5784 80.5131L93.8268 81.7534Z" fill="#EEBF77"/>
<path d="M93.827 81.7534V80.8445L96.2537 78.969V79.2389L93.827 81.7534Z" fill="#C39749"/>
<path d="M93.2945 79.9097L92.551 79.4604L95.8688 78.5652L96.0961 78.691L93.2945 79.9097Z" fill="#F6E7AE"/>
<path d="M70.2387 94.9126L69.7014 93.9722L68.9548 93.5263L68.4272 93.8399V94.7247L68.9548 95.6852L69.7014 96.1279L70.2387 95.8129V94.9126Z" fill="#72514F"/>
<path d="M69.7015 93.9725L68.9548 93.5266L92.5512 79.4604L93.2946 79.9097L69.807 93.9844L69.7015 93.9725Z" fill="#8FD3C7"/>
<path d="M70.2387 94.9127L69.7014 93.9722L93.2945 79.9095L93.8269 80.8445L70.3329 94.9663L70.2387 94.9127Z" fill="#449C98"/>
<path d="M70.2388 95.813V94.9126L93.827 80.8445V81.7534L70.2388 95.813Z" fill="#3C6266"/>
<path d="M67.0994 96.7919L66.5703 95.8366L65.822 95.3853L65.2944 95.7068V96.6072L65.822 97.5476L66.5703 97.9922L67.0994 97.6765V96.7919Z" fill="#D9D1C3"/>
<path d="M66.5703 95.8367L65.822 95.3854L68.9548 93.5264L69.7014 93.9606L66.6661 95.855L66.5703 95.8367Z" fill="#E8E2DC"/>
<path d="M67.0995 96.7919L66.5703 95.8366L69.7014 93.9604L70.2387 94.9126L67.1952 96.8286L67.0995 96.7919Z" fill="#D2D2D0"/>
<path d="M67.0995 97.6768V96.7922L70.2387 94.9128V95.8132L67.0995 97.6768Z" fill="#9F988F"/>
<path d="M65.5169 97.6806L65.0251 96.8102L64.332 96.401L63.8483 96.6944V97.5076L64.332 98.3845L65.0251 98.7983L65.5169 98.503V97.6806Z" fill="#C25855"/>
<path d="M65.025 96.8101L64.3319 96.4009L65.7814 95.5443L66.4713 95.9582L65.1175 96.8252L65.025 96.8101Z" fill="#F79285"/>
<path d="M65.5169 97.6807L65.025 96.8104L66.4713 95.9585L66.9517 96.8288L65.5996 97.7227L65.5169 97.6807Z" fill="#D56667"/>
<path d="M65.517 98.5029V97.6805L66.9518 96.8286V97.6451L65.517 98.5029Z" fill="#A43659"/>
<path d="M72.4041 92.3626L71.6558 91.912L72.805 91.2297L73.5533 91.6671L72.4934 92.3809L72.4041 92.3626Z" fill="#FBCD7F"/>
<path d="M72.93 93.3086L72.4041 92.363L73.5532 91.6675L74.0889 92.6248L73.0257 93.3589L72.93 93.3086Z" fill="#F8A53C"/>
<path d="M72.9301 94.2036V93.3086L74.089 92.6248V93.5096L72.9301 94.2036Z" fill="#F57F19"/>
<path d="M91.225 67.835H88.9217L84.7533 65.3505V63.9794L86.3814 63.009H88.6815L92.853 65.4985V66.8677L91.225 67.835Z" fill="#B0B0AE"/>
<path d="M88.6815 61.4162H86.4009L84.7842 62.3734V63.7329L88.6815 61.4162Z" fill="#F8EFCF"/>
<path d="M92.8223 66.7522L91.2056 67.7344L90.9346 66.001L92.1665 65.449L92.8223 65.248V66.7522Z" fill="#C3AA79"/>
<path d="M88.9217 67.7344L84.7842 65.2598V63.7328L87.8893 65.0759L88.9217 66.2034V67.7344Z" fill="#C9322B"/>
<path d="M91.2056 67.7344H88.9218V66.2034L90.3599 65.7176L91.2056 66.2034V67.7344Z" fill="#EFCC95"/>
<path d="M88.9218 66.2036H91.2056L92.8222 65.2483V63.8738L88.9218 66.2036Z" fill="#F8EFCF"/>
<path d="M88.9217 66.2036L84.7842 63.733L88.6815 61.4163L92.8222 63.8738L88.9217 66.2036Z" fill="#F1434A"/>
<path d="M87.8521 64.6062L86.1964 63.6167H85.9952L85.8572 63.6993V63.8185L87.5161 64.8052H87.7141L87.8521 64.7254V64.6062Z" fill="#7D6563"/>
<path d="M119.413 80.8445V81.7095L41.8053 128L41.8102 127.134L119.413 80.8445Z" fill="#881B1D"/>
<path d="M119.413 80.8447L111.241 75.9754L33.6373 122.261L41.8101 127.134L119.413 80.8447Z" fill="#F1434A"/>
<path d="M50.5835 112.15L53.5507 113.922L54.0312 113.631L51.0672 111.864L50.5835 112.15Z" fill="white"/>
<path d="M55.4093 109.275L58.3733 111.047L58.857 110.757L55.8946 108.987L55.4093 109.275Z" fill="white"/>
<path d="M60.2301 106.399L63.1973 108.166L63.6778 107.879L60.7154 106.111L60.2301 106.399Z" fill="white"/>
<path d="M65.056 103.524L68.0184 105.289L68.5053 105.003L65.5414 103.238L65.056 103.524Z" fill="white"/>
<path d="M69.8833 100.645L72.8473 102.412L73.331 102.126L70.3686 100.357L69.8833 100.645Z" fill="white"/>
<path d="M74.7042 97.7709L77.673 99.5376L78.1535 99.2494L75.1912 97.4807L74.7042 97.7709Z" fill="white"/>
<path d="M79.5315 94.8925L82.4954 96.6592L82.9808 96.371L80.0168 94.6057L79.5315 94.8925Z" fill="white"/>
<path d="M84.354 92.0161L87.3212 93.7866L87.8049 93.4978L84.8393 91.7279L84.354 92.0161Z" fill="white"/>
<path d="M89.1797 89.1394L92.1453 90.9067L92.6257 90.6181L89.6634 88.8546L89.1797 89.1394Z" fill="white"/>
<path d="M94.0022 86.2624L96.9694 88.0298L97.4547 87.7411L94.4908 85.9763L94.0022 86.2624Z" fill="white"/>
<path d="M98.828 83.3861L101.792 85.1548L102.277 84.868L99.3134 83.0979L98.828 83.3861Z" fill="white"/>
<path d="M103.652 80.5082L106.619 82.2769L107.102 81.99L104.139 80.2213L103.652 80.5082Z" fill="white"/>
<path d="M108.962 77.3465L108.476 77.6327L111.445 79.4014L111.924 79.1112L108.962 77.3465Z" fill="white"/>
<path d="M34.9295 32.4157L28.526 0.0151749L14.7629 32.4157L28.526 40.623L34.9295 32.4157Z" fill="#305D7F"/>
<path d="M28.526 40.623V0.0151749L42.2858 32.4157L28.526 40.623Z" fill="#213F5A"/>
<path d="M7.83359 39.0671L7.84333 54.5347L1.76932 50.9186L1.76611 35.4479L5.68773 37.3757L7.83359 39.0671Z" fill="#DFBA45"/>
<path d="M16.4202 39.0672L16.4283 54.5366L7.84324 54.5348L7.8335 39.0672L11.5717 38.7556L16.4202 39.0672Z" fill="#D2A53A"/>
<path d="M22.4877 35.45L22.4942 50.9188L16.4283 54.5366L16.4202 39.0641L19.0936 36.7506L22.4877 35.45Z" fill="#C98C3B"/>
<path d="M16.4203 26.7096H7.83358L1.76611 30.3288V35.4482L7.83358 39.0674H16.4203L22.4878 35.4502V30.3288L16.4203 26.7096Z" fill="#F6EC5A"/>
<path d="M79.2344 56.04L66.1515 48.2419L71.3895 31.1602L97.5684 31.1465L79.2344 56.04Z" fill="#C9322B"/>
<path d="M84.4677 38.9565L71.3896 31.1602L84.4888 23.3484L97.5685 31.1465L89.9768 38.9565H84.4677Z" fill="#F1434A"/>
<path d="M102.803 41.9845L79.2345 56.04L84.4677 38.9565L97.5685 31.1465L102.803 41.9845Z" fill="#881B1D"/>
</svg>
